<mxfile host="65bd71144e">
    <diagram id="JWL3D8KC9eOvtQeeoQiy" name="AS-IS">
        <mxGraphModel dx="1772" dy="796" grid="1" gridSize="10" guides="1" tooltips="1" connect="1" arrows="1" fold="1" page="1" pageScale="1" pageWidth="827" pageHeight="1169" math="0" shadow="0">
            <root>
                <mxCell id="0"/>
                <mxCell id="1" parent="0"/>
                <mxCell id="43" style="edgeStyle=none;html=1;exitX=1;exitY=0.5;exitDx=0;exitDy=0;entryX=0;entryY=0.5;entryDx=0;entryDy=0;" parent="1" source="31" target="32" edge="1">
                    <mxGeometry relative="1" as="geometry"/>
                </mxCell>
                <mxCell id="83" value="&lt;div style=&quot;scrollbar-color: light-dark(#e2e2e2, #4b4b4b)&lt;br/&gt;&#x9;&#x9;&#x9;&#x9;&#x9;light-dark(#fbfbfb, var(--dark-panel-color));&quot;&gt;Данные пациента,&lt;/div&gt;&lt;div style=&quot;scrollbar-color: light-dark(#e2e2e2, #4b4b4b)&lt;br/&gt;&#x9;&#x9;&#x9;&#x9;&#x9;light-dark(#fbfbfb, var(--dark-panel-color));&quot;&gt;включая&amp;nbsp;&lt;/div&gt;&lt;div style=&quot;scrollbar-color: light-dark(#e2e2e2, #4b4b4b)&lt;br/&gt;&#x9;&#x9;&#x9;&#x9;&#x9;light-dark(#fbfbfb, var(--dark-panel-color));&quot;&gt;конфиденциальные&lt;/div&gt;" style="edgeLabel;html=1;align=center;verticalAlign=middle;resizable=0;points=[];" parent="43" vertex="1" connectable="0">
                    <mxGeometry x="0.1655" y="-5" relative="1" as="geometry">
                        <mxPoint x="-16" y="-5" as="offset"/>
                    </mxGeometry>
                </mxCell>
                <mxCell id="31" value="Сотрудник ресепшена" style="whiteSpace=wrap;align=center;verticalAlign=middle;fontStyle=1;strokeWidth=1;fillColor=#d5e8d4;strokeColor=#82b366;rounded=0;" parent="1" vertex="1">
                    <mxGeometry x="-800" y="110" width="90" height="60" as="geometry"/>
                </mxCell>
                <mxCell id="32" value="&lt;p style=&quot;margin: 4px 0px 0px;&quot;&gt;&lt;strong style=&quot;&quot;&gt;1.0&lt;/strong&gt;&lt;/p&gt;&lt;hr&gt;&lt;p style=&quot;scrollbar-color: light-dark(#e2e2e2, #4b4b4b)&lt;br/&gt;&#x9;&#x9;&#x9;&#x9;&#x9;light-dark(#fbfbfb, var(--dark-panel-color)); margin: 0px 0px 0px 8px;&quot;&gt;Зарегистрировать&lt;/p&gt;&lt;p style=&quot;scrollbar-color: light-dark(#e2e2e2, #4b4b4b)&lt;br/&gt;&#x9;&#x9;&#x9;&#x9;&#x9;light-dark(#fbfbfb, var(--dark-panel-color)); margin: 0px 0px 0px 8px;&quot;&gt;пациента&amp;nbsp;&lt;span style=&quot;scrollbar-color: light-dark(#e2e2e2, #4b4b4b)&lt;br/&gt;&#x9;&#x9;&#x9;&#x9;&#x9;light-dark(#fbfbfb, var(--dark-panel-color)); background-color: transparent;&quot;&gt;в системе&lt;/span&gt;&lt;/p&gt;" style="verticalAlign=middle;align=center;overflow=fill;fontSize=12;fontFamily=Helvetica;html=1;rounded=0;fontStyle=1;strokeWidth=1;spacing=2;arcSize=14;fillColor=#fff2cc;strokeColor=#d6b656;" parent="1" vertex="1">
                    <mxGeometry x="-560" y="100" width="150" height="80" as="geometry"/>
                </mxCell>
                <mxCell id="50" value="&amp;nbsp; 1&amp;nbsp; &amp;nbsp; &amp;nbsp; Patients.xml" style="html=1;dashed=0;whiteSpace=wrap;shape=mxgraph.dfd.dataStoreID;align=left;spacingLeft=3;points=[[0,0],[0.5,0],[1,0],[0,0.5],[1,0.5],[0,1],[0.5,1],[1,1]];noLabel=0;perimeter=none;" parent="1" vertex="1">
                    <mxGeometry x="-240" y="80" width="210" height="30" as="geometry"/>
                </mxCell>
                <mxCell id="51" value="&amp;nbsp; 2&amp;nbsp; &amp;nbsp; &amp;nbsp; Файлы пациента (Data file)" style="html=1;dashed=0;whiteSpace=wrap;shape=mxgraph.dfd.dataStoreID;align=left;spacingLeft=3;points=[[0,0],[0.5,0],[1,0],[0,0.5],[1,0.5],[0,1],[0.5,1],[1,1]];noLabel=0;perimeter=none;" parent="1" vertex="1">
                    <mxGeometry x="-240" y="170" width="200" height="30" as="geometry"/>
                </mxCell>
                <mxCell id="52" style="edgeStyle=none;html=1;exitX=1;exitY=0.25;exitDx=0;exitDy=0;entryX=0;entryY=0.667;entryDx=0;entryDy=0;entryPerimeter=0;startArrow=classic;startFill=1;" parent="1" source="32" target="50" edge="1">
                    <mxGeometry relative="1" as="geometry"/>
                </mxCell>
                <mxCell id="73" value="&lt;div style=&quot;scrollbar-color: light-dark(#e2e2e2, #4b4b4b)&lt;br/&gt;&#x9;&#x9;&#x9;&#x9;&#x9;light-dark(#fbfbfb, var(--dark-panel-color));&quot;&gt;&lt;span style=&quot;color: rgb(63, 63, 63);&quot;&gt;Данные&amp;nbsp;&lt;/span&gt;&lt;/div&gt;&lt;div style=&quot;scrollbar-color: light-dark(#e2e2e2, #4b4b4b)&lt;br/&gt;&#x9;&#x9;&#x9;&#x9;&#x9;light-dark(#fbfbfb, var(--dark-panel-color));&quot;&gt;&lt;span style=&quot;color: rgb(63, 63, 63);&quot;&gt;пациента&lt;/span&gt;&lt;br&gt;&lt;/div&gt;" style="edgeLabel;html=1;align=center;verticalAlign=middle;resizable=0;points=[];" parent="52" vertex="1" connectable="0">
                    <mxGeometry x="-0.0888" y="4" relative="1" as="geometry">
                        <mxPoint y="-1" as="offset"/>
                    </mxGeometry>
                </mxCell>
                <mxCell id="53" style="edgeStyle=none;html=1;exitX=1;exitY=0.75;exitDx=0;exitDy=0;entryX=-0.005;entryY=0.567;entryDx=0;entryDy=0;entryPerimeter=0;" parent="1" source="32" target="51" edge="1">
                    <mxGeometry relative="1" as="geometry"/>
                </mxCell>
                <mxCell id="74" value="&lt;div style=&quot;scrollbar-color: light-dark(#e2e2e2, #4b4b4b)&lt;br/&gt;&#x9;&#x9;&#x9;&#x9;&#x9;light-dark(#fbfbfb, var(--dark-panel-color));&quot;&gt;Данные пациента,&lt;/div&gt;&lt;div style=&quot;scrollbar-color: light-dark(#e2e2e2, #4b4b4b)&lt;br/&gt;&#x9;&#x9;&#x9;&#x9;&#x9;light-dark(#fbfbfb, var(--dark-panel-color));&quot;&gt;включая&amp;nbsp;&lt;/div&gt;&lt;div style=&quot;scrollbar-color: light-dark(#e2e2e2, #4b4b4b)&lt;br/&gt;&#x9;&#x9;&#x9;&#x9;&#x9;light-dark(#fbfbfb, var(--dark-panel-color));&quot;&gt;конфиденциальные&lt;/div&gt;" style="edgeLabel;html=1;align=center;verticalAlign=middle;resizable=0;points=[];" parent="53" vertex="1" connectable="0">
                    <mxGeometry x="0.0579" y="2" relative="1" as="geometry">
                        <mxPoint x="-8" y="-2" as="offset"/>
                    </mxGeometry>
                </mxCell>
                <mxCell id="55" value="&lt;p style=&quot;margin: 4px 0px 0px;&quot;&gt;&lt;strong style=&quot;&quot;&gt;2.0&lt;br&gt;&lt;/strong&gt;&lt;/p&gt;&lt;hr&gt;&lt;p style=&quot;margin: 0px; margin-left: 8px;&quot;&gt;Запись&amp;nbsp;&lt;/p&gt;&lt;p style=&quot;margin: 0px; margin-left: 8px;&quot;&gt;к специалисту&lt;/p&gt;" style="verticalAlign=middle;align=center;overflow=fill;fontSize=12;fontFamily=Helvetica;html=1;rounded=0;fontStyle=1;strokeWidth=1;spacing=2;arcSize=14;fillColor=#fff2cc;strokeColor=#d6b656;" parent="1" vertex="1">
                    <mxGeometry x="-560" y="270" width="150" height="80" as="geometry"/>
                </mxCell>
                <mxCell id="60" style="edgeStyle=none;html=1;exitX=1;exitY=0.5;exitDx=0;exitDy=0;entryX=0;entryY=0.5;entryDx=0;entryDy=0;" parent="1" source="56" target="55" edge="1">
                    <mxGeometry relative="1" as="geometry"/>
                </mxCell>
                <mxCell id="85" value="Время,&amp;nbsp;&lt;div&gt;спрециалист&lt;/div&gt;" style="edgeLabel;html=1;align=center;verticalAlign=middle;resizable=0;points=[];" parent="60" vertex="1" connectable="0">
                    <mxGeometry x="-0.0222" y="-3" relative="1" as="geometry">
                        <mxPoint as="offset"/>
                    </mxGeometry>
                </mxCell>
                <mxCell id="56" value="Сотрудник ресепшена" style="whiteSpace=wrap;align=center;verticalAlign=middle;fontStyle=1;strokeWidth=1;fillColor=#d5e8d4;strokeColor=#82b366;rounded=0;" parent="1" vertex="1">
                    <mxGeometry x="-800" y="280" width="90" height="60" as="geometry"/>
                </mxCell>
                <mxCell id="59" style="edgeStyle=none;html=1;entryX=1;entryY=0.25;entryDx=0;entryDy=0;exitX=-0.01;exitY=0.5;exitDx=0;exitDy=0;exitPerimeter=0;" parent="1" source="86" target="55" edge="1">
                    <mxGeometry relative="1" as="geometry">
                        <mxPoint x="-370" y="260" as="sourcePoint"/>
                    </mxGeometry>
                </mxCell>
                <mxCell id="69" value="&lt;div style=&quot;scrollbar-color: light-dark(#e2e2e2, #4b4b4b)&lt;br/&gt;&#x9;&#x9;&#x9;&#x9;&#x9;light-dark(#fbfbfb, var(--dark-panel-color));&quot;&gt;&lt;div style=&quot;scrollbar-color: light-dark(#e2e2e2, #4b4b4b)&lt;br/&gt;&#x9;&#x9;&#x9;&#x9;&#x9;light-dark(#fbfbfb, var(--dark-panel-color));&quot;&gt;&lt;span style=&quot;scrollbar-color: light-dark(#e2e2e2, #4b4b4b)&lt;br/&gt;&#x9;&#x9;&#x9;&#x9;&#x9;light-dark(#fbfbfb, var(--dark-panel-color)); color: rgb(63, 63, 63);&quot;&gt;Данные&amp;nbsp;&lt;/span&gt;&lt;/div&gt;&lt;div style=&quot;scrollbar-color: light-dark(#e2e2e2, #4b4b4b)&lt;br/&gt;&#x9;&#x9;&#x9;&#x9;&#x9;light-dark(#fbfbfb, var(--dark-panel-color));&quot;&gt;&lt;span style=&quot;scrollbar-color: light-dark(#e2e2e2, #4b4b4b)&lt;br/&gt;&#x9;&#x9;&#x9;&#x9;&#x9;light-dark(#fbfbfb, var(--dark-panel-color)); color: rgb(63, 63, 63);&quot;&gt;пациента&lt;/span&gt;&lt;/div&gt;&lt;/div&gt;" style="edgeLabel;html=1;align=center;verticalAlign=middle;resizable=0;points=[];" parent="59" vertex="1" connectable="0">
                    <mxGeometry x="-0.0905" relative="1" as="geometry">
                        <mxPoint x="-12" as="offset"/>
                    </mxGeometry>
                </mxCell>
                <mxCell id="86" value="&amp;nbsp; 1&amp;nbsp; &amp;nbsp; &amp;nbsp;&amp;nbsp;&lt;span style=&quot;color: rgb(0, 0, 0);&quot;&gt;Patients.xml&lt;/span&gt;" style="html=1;dashed=0;whiteSpace=wrap;shape=mxgraph.dfd.dataStoreID;align=left;spacingLeft=3;points=[[0,0],[0.5,0],[1,0],[0,0.5],[1,0.5],[0,1],[0.5,1],[1,1]];noLabel=0;perimeter=none;" parent="1" vertex="1">
                    <mxGeometry x="-240" y="240" width="210" height="30" as="geometry"/>
                </mxCell>
                <mxCell id="87" value="&amp;nbsp; 3&amp;nbsp; &amp;nbsp; &amp;nbsp; &amp;nbsp;Journal-Doctor-FIO.xml" style="html=1;dashed=0;whiteSpace=wrap;shape=mxgraph.dfd.dataStoreID;align=left;spacingLeft=3;points=[[0,0],[0.5,0],[1,0],[0,0.5],[1,0.5],[0,1],[0.5,1],[1,1]];noLabel=0;perimeter=none;" parent="1" vertex="1">
                    <mxGeometry x="-240" y="340" width="210" height="30" as="geometry"/>
                </mxCell>
                <mxCell id="88" style="edgeStyle=none;html=1;exitX=1;exitY=0.75;exitDx=0;exitDy=0;entryX=-0.014;entryY=0.467;entryDx=0;entryDy=0;entryPerimeter=0;" parent="1" source="55" target="87" edge="1">
                    <mxGeometry relative="1" as="geometry"/>
                </mxCell>
                <mxCell id="89" value="&lt;div style=&quot;color: rgb(63, 63, 63); scrollbar-color: light-dark(#e2e2e2, #4b4b4b)&lt;br/&gt;&#x9;&#x9;&#x9;&#x9;&#x9;light-dark(#fbfbfb, var(--dark-panel-color));&quot;&gt;&lt;span style=&quot;scrollbar-color: light-dark(#e2e2e2, #4b4b4b)&lt;br/&gt;&#x9;&#x9;&#x9;&#x9;&#x9;light-dark(#fbfbfb, var(--dark-panel-color)); color: rgb(63, 63, 63);&quot;&gt;Данные&amp;nbsp;&amp;nbsp;&lt;/span&gt;&lt;span style=&quot;background-color: light-dark(#ffffff, var(--ge-dark-color, #121212));&quot;&gt;пациента,&lt;/span&gt;&lt;/div&gt;&lt;div style=&quot;color: rgb(63, 63, 63); scrollbar-color: light-dark(#e2e2e2, #4b4b4b)&lt;br/&gt;&#x9;&#x9;&#x9;&#x9;&#x9;light-dark(#fbfbfb, var(--dark-panel-color));&quot;&gt;&lt;span style=&quot;scrollbar-color: light-dark(#e2e2e2, #4b4b4b)&lt;br/&gt;&#x9;&#x9;&#x9;&#x9;&#x9;light-dark(#fbfbfb, var(--dark-panel-color)); color: rgb(63, 63, 63);&quot;&gt;&lt;span style=&quot;color: rgb(0, 0, 0);&quot;&gt;время,&amp;nbsp;&lt;/span&gt;&lt;div style=&quot;scrollbar-color: light-dark(#e2e2e2, #4b4b4b)&lt;br/&gt;&#x9;&#x9;&#x9;&#x9;&#x9;light-dark(#fbfbfb, var(--dark-panel-color));&quot;&gt;спрециалист,&lt;/div&gt;&lt;div style=&quot;scrollbar-color: light-dark(#e2e2e2, #4b4b4b)&lt;br/&gt;&#x9;&#x9;&#x9;&#x9;&#x9;light-dark(#fbfbfb, var(--dark-panel-color));&quot;&gt;счет на оплату&lt;/div&gt;&lt;/span&gt;&lt;/div&gt;" style="edgeLabel;html=1;align=center;verticalAlign=middle;resizable=0;points=[];" parent="88" vertex="1" connectable="0">
                    <mxGeometry x="-0.1581" y="3" relative="1" as="geometry">
                        <mxPoint as="offset"/>
                    </mxGeometry>
                </mxCell>
                <mxCell id="90" value="&lt;p style=&quot;margin: 4px 0px 0px;&quot;&gt;&lt;strong style=&quot;&quot;&gt;3.0&lt;br&gt;&lt;/strong&gt;&lt;/p&gt;&lt;hr&gt;&lt;p style=&quot;margin: 0px; margin-left: 8px;&quot;&gt;Оплата&amp;nbsp;&lt;/p&gt;&lt;p style=&quot;margin: 0px; margin-left: 8px;&quot;&gt;услуг&lt;/p&gt;" style="verticalAlign=middle;align=center;overflow=fill;fontSize=12;fontFamily=Helvetica;html=1;rounded=0;fontStyle=1;strokeWidth=1;spacing=2;arcSize=14;fillColor=#fff2cc;strokeColor=#d6b656;" parent="1" vertex="1">
                    <mxGeometry x="-560" y="440" width="150" height="80" as="geometry"/>
                </mxCell>
                <mxCell id="91" style="edgeStyle=none;html=1;exitX=1;exitY=0.5;exitDx=0;exitDy=0;entryX=0;entryY=0.5;entryDx=0;entryDy=0;" parent="1" source="93" target="90" edge="1">
                    <mxGeometry relative="1" as="geometry"/>
                </mxCell>
                <mxCell id="92" value="Принятие&lt;div&gt;оплаты&lt;/div&gt;" style="edgeLabel;html=1;align=center;verticalAlign=middle;resizable=0;points=[];" parent="91" vertex="1" connectable="0">
                    <mxGeometry x="-0.0222" y="-3" relative="1" as="geometry">
                        <mxPoint as="offset"/>
                    </mxGeometry>
                </mxCell>
                <mxCell id="93" value="Кассир" style="whiteSpace=wrap;align=center;verticalAlign=middle;fontStyle=1;strokeWidth=1;fillColor=#d5e8d4;strokeColor=#82b366;rounded=0;" parent="1" vertex="1">
                    <mxGeometry x="-800" y="450" width="90" height="60" as="geometry"/>
                </mxCell>
                <mxCell id="94" value="&amp;nbsp; 4&amp;nbsp; &amp;nbsp; &amp;nbsp; &amp;nbsp;Файловая БД 1С Бухгалтерия" style="html=1;dashed=0;whiteSpace=wrap;shape=mxgraph.dfd.dataStoreID;align=left;spacingLeft=3;points=[[0,0],[0.5,0],[1,0],[0,0.5],[1,0.5],[0,1],[0.5,1],[1,1]];noLabel=0;perimeter=none;" parent="1" vertex="1">
                    <mxGeometry x="-240" y="510" width="210" height="30" as="geometry"/>
                </mxCell>
                <mxCell id="95" value="&amp;nbsp; 3&amp;nbsp; &amp;nbsp; &amp;nbsp; &amp;nbsp;Journal-Doctor-FIO.xml" style="html=1;dashed=0;whiteSpace=wrap;shape=mxgraph.dfd.dataStoreID;align=left;spacingLeft=3;points=[[0,0],[0.5,0],[1,0],[0,0.5],[1,0.5],[0,1],[0.5,1],[1,1]];noLabel=0;perimeter=none;" parent="1" vertex="1">
                    <mxGeometry x="-240" y="420" width="210" height="30" as="geometry"/>
                </mxCell>
                <mxCell id="97" style="edgeStyle=none;html=1;exitX=1;exitY=0.75;exitDx=0;exitDy=0;entryX=-0.005;entryY=0.467;entryDx=0;entryDy=0;entryPerimeter=0;startArrow=none;startFill=0;" parent="1" source="90" target="94" edge="1">
                    <mxGeometry relative="1" as="geometry"/>
                </mxCell>
                <mxCell id="98" value="&lt;span style=&quot;color: rgb(0, 0, 0);&quot;&gt;Движение ДС&lt;/span&gt;" style="edgeLabel;html=1;align=center;verticalAlign=middle;resizable=0;points=[];" parent="97" vertex="1" connectable="0">
                    <mxGeometry x="-0.1349" y="-1" relative="1" as="geometry">
                        <mxPoint as="offset"/>
                    </mxGeometry>
                </mxCell>
                <mxCell id="99" style="edgeStyle=none;html=1;exitX=-0.01;exitY=0.567;exitDx=0;exitDy=0;startArrow=none;startFill=0;exitPerimeter=0;entryX=1;entryY=0.25;entryDx=0;entryDy=0;" parent="1" source="95" target="90" edge="1">
                    <mxGeometry relative="1" as="geometry">
                        <mxPoint x="-370" y="410" as="targetPoint"/>
                    </mxGeometry>
                </mxCell>
                <mxCell id="101" value="Счет на&amp;nbsp;&lt;div&gt;оплату&lt;/div&gt;" style="edgeLabel;html=1;align=center;verticalAlign=middle;resizable=0;points=[];" parent="99" vertex="1" connectable="0">
                    <mxGeometry x="-0.1095" y="-3" relative="1" as="geometry">
                        <mxPoint x="-23" y="6" as="offset"/>
                    </mxGeometry>
                </mxCell>
                <mxCell id="102" value="&lt;p style=&quot;margin: 4px 0px 0px;&quot;&gt;&lt;strong style=&quot;&quot;&gt;4.0&lt;br&gt;&lt;/strong&gt;&lt;/p&gt;&lt;hr&gt;&lt;p style=&quot;margin: 0px; margin-left: 8px;&quot;&gt;Учет ТМЦ&lt;/p&gt;" style="verticalAlign=middle;align=center;overflow=fill;fontSize=12;fontFamily=Helvetica;html=1;rounded=0;fontStyle=1;strokeWidth=1;spacing=2;arcSize=14;fillColor=#fff2cc;strokeColor=#d6b656;" parent="1" vertex="1">
                    <mxGeometry x="-560" y="590" width="150" height="80" as="geometry"/>
                </mxCell>
                <mxCell id="159" style="edgeStyle=none;html=1;exitX=1;exitY=0.5;exitDx=0;exitDy=0;entryX=0;entryY=0.5;entryDx=0;entryDy=0;" parent="1" source="105" target="102" edge="1">
                    <mxGeometry relative="1" as="geometry"/>
                </mxCell>
                <mxCell id="160" value="Данные ТМЦ" style="edgeLabel;html=1;align=center;verticalAlign=middle;resizable=0;points=[];" parent="159" vertex="1" connectable="0">
                    <mxGeometry x="-0.08" y="1" relative="1" as="geometry">
                        <mxPoint as="offset"/>
                    </mxGeometry>
                </mxCell>
                <mxCell id="105" value="Сотрудник склада" style="whiteSpace=wrap;align=center;verticalAlign=middle;fontStyle=1;strokeWidth=1;fillColor=#d5e8d4;strokeColor=#82b366;rounded=0;" parent="1" vertex="1">
                    <mxGeometry x="-800" y="600" width="90" height="60" as="geometry"/>
                </mxCell>
                <mxCell id="106" value="&amp;nbsp; 5&amp;nbsp; &amp;nbsp; &amp;nbsp; &amp;nbsp;Файловая БД 1С Торговля и Склад" style="html=1;dashed=0;whiteSpace=wrap;shape=mxgraph.dfd.dataStoreID;align=left;spacingLeft=3;points=[[0,0],[0.5,0],[1,0],[0,0.5],[1,0.5],[0,1],[0.5,1],[1,1]];noLabel=0;perimeter=none;" parent="1" vertex="1">
                    <mxGeometry x="-280" y="615" width="260" height="30" as="geometry"/>
                </mxCell>
                <mxCell id="108" style="edgeStyle=none;html=1;exitX=1;exitY=0.5;exitDx=0;exitDy=0;entryX=-0.005;entryY=0.467;entryDx=0;entryDy=0;entryPerimeter=0;startArrow=none;startFill=0;" parent="1" source="102" target="106" edge="1">
                    <mxGeometry relative="1" as="geometry"/>
                </mxCell>
                <mxCell id="109" value="&lt;span style=&quot;color: rgb(0, 0, 0);&quot;&gt;Данные ТМЦ&lt;/span&gt;" style="edgeLabel;html=1;align=center;verticalAlign=middle;resizable=0;points=[];" parent="108" vertex="1" connectable="0">
                    <mxGeometry x="-0.1349" y="-1" relative="1" as="geometry">
                        <mxPoint as="offset"/>
                    </mxGeometry>
                </mxCell>
                <mxCell id="117" value="&lt;p style=&quot;margin: 4px 0px 0px;&quot;&gt;&lt;strong style=&quot;&quot;&gt;6.0&lt;br&gt;&lt;/strong&gt;&lt;/p&gt;&lt;hr&gt;&lt;p style=&quot;margin: 0px; margin-left: 8px;&quot;&gt;Прием пациента&lt;/p&gt;" style="verticalAlign=middle;align=center;overflow=fill;fontSize=12;fontFamily=Helvetica;html=1;rounded=0;fontStyle=1;strokeWidth=1;spacing=2;arcSize=14;fillColor=#fff2cc;strokeColor=#d6b656;" parent="1" vertex="1">
                    <mxGeometry x="-560" y="870" width="150" height="80" as="geometry"/>
                </mxCell>
                <mxCell id="118" style="edgeStyle=none;html=1;exitX=1;exitY=0.5;exitDx=0;exitDy=0;entryX=0;entryY=0.5;entryDx=0;entryDy=0;" parent="1" source="120" target="117" edge="1">
                    <mxGeometry relative="1" as="geometry"/>
                </mxCell>
                <mxCell id="119" value="Клинические&lt;div&gt;данные&lt;/div&gt;" style="edgeLabel;html=1;align=center;verticalAlign=middle;resizable=0;points=[];" parent="118" vertex="1" connectable="0">
                    <mxGeometry x="-0.0222" y="-3" relative="1" as="geometry">
                        <mxPoint as="offset"/>
                    </mxGeometry>
                </mxCell>
                <mxCell id="120" value="Специалист - Медик" style="whiteSpace=wrap;align=center;verticalAlign=middle;fontStyle=1;strokeWidth=1;fillColor=#d5e8d4;strokeColor=#82b366;rounded=0;" parent="1" vertex="1">
                    <mxGeometry x="-800" y="880" width="90" height="60" as="geometry"/>
                </mxCell>
                <mxCell id="122" value="&amp;nbsp; 3&amp;nbsp; &amp;nbsp; &amp;nbsp; &amp;nbsp;Journal-Doctor-FIO.xml" style="html=1;dashed=0;whiteSpace=wrap;shape=mxgraph.dfd.dataStoreID;align=left;spacingLeft=3;points=[[0,0],[0.5,0],[1,0],[0,0.5],[1,0.5],[0,1],[0.5,1],[1,1]];noLabel=0;perimeter=none;" parent="1" vertex="1">
                    <mxGeometry x="-240" y="820" width="210" height="30" as="geometry"/>
                </mxCell>
                <mxCell id="123" style="edgeStyle=none;html=1;exitX=1;exitY=0.5;exitDx=0;exitDy=0;entryX=0.005;entryY=0.533;entryDx=0;entryDy=0;entryPerimeter=0;startArrow=classic;startFill=1;" parent="1" source="117" target="127" edge="1">
                    <mxGeometry relative="1" as="geometry">
                        <mxPoint x="-241.04999999999995" y="944.01" as="targetPoint"/>
                    </mxGeometry>
                </mxCell>
                <mxCell id="124" value="Клинические&lt;div&gt;данные&lt;/div&gt;" style="edgeLabel;html=1;align=center;verticalAlign=middle;resizable=0;points=[];" parent="123" vertex="1" connectable="0">
                    <mxGeometry x="-0.1349" y="-1" relative="1" as="geometry">
                        <mxPoint as="offset"/>
                    </mxGeometry>
                </mxCell>
                <mxCell id="125" style="edgeStyle=none;html=1;entryX=1;entryY=0.25;entryDx=0;entryDy=0;exitX=-0.014;exitY=0.433;exitDx=0;exitDy=0;exitPerimeter=0;" parent="1" source="122" target="117" edge="1">
                    <mxGeometry relative="1" as="geometry">
                        <mxPoint x="-390" y="840" as="sourcePoint"/>
                    </mxGeometry>
                </mxCell>
                <mxCell id="128" value="&lt;div style=&quot;scrollbar-color: light-dark(#e2e2e2, #4b4b4b)&lt;br/&gt;&#x9;&#x9;&#x9;&#x9;&#x9;light-dark(#fbfbfb, var(--dark-panel-color)); color: rgb(63, 63, 63);&quot;&gt;&lt;span style=&quot;scrollbar-color: light-dark(#e2e2e2, #4b4b4b)&lt;br/&gt;&#x9;&#x9;&#x9;&#x9;&#x9;light-dark(#fbfbfb, var(--dark-panel-color)); color: rgb(63, 63, 63);&quot;&gt;Данные&amp;nbsp;&amp;nbsp;&lt;/span&gt;&lt;span style=&quot;scrollbar-color: light-dark(#e2e2e2, #4b4b4b)&lt;br/&gt;&#x9;&#x9;&#x9;&#x9;&#x9;light-dark(#fbfbfb, var(--dark-panel-color)); background-color: light-dark(#ffffff, var(--ge-dark-color, #121212));&quot;&gt;пациента,&lt;/span&gt;&lt;/div&gt;&lt;div style=&quot;scrollbar-color: light-dark(#e2e2e2, #4b4b4b)&lt;br/&gt;&#x9;&#x9;&#x9;&#x9;&#x9;light-dark(#fbfbfb, var(--dark-panel-color)); color: rgb(63, 63, 63);&quot;&gt;&lt;span style=&quot;scrollbar-color: light-dark(#e2e2e2, #4b4b4b)&lt;br/&gt;&#x9;&#x9;&#x9;&#x9;&#x9;light-dark(#fbfbfb, var(--dark-panel-color)); color: rgb(63, 63, 63);&quot;&gt;&lt;span style=&quot;scrollbar-color: light-dark(#e2e2e2, #4b4b4b)&lt;br/&gt;&#x9;&#x9;&#x9;&#x9;&#x9;light-dark(#fbfbfb, var(--dark-panel-color)); color: rgb(0, 0, 0);&quot;&gt;время,&amp;nbsp;&lt;/span&gt;&lt;div style=&quot;scrollbar-color: light-dark(#e2e2e2, #4b4b4b)&lt;br/&gt;&#x9;&#x9;&#x9;&#x9;&#x9;light-dark(#fbfbfb, var(--dark-panel-color));&quot;&gt;спрециалист&lt;/div&gt;&lt;/span&gt;&lt;/div&gt;" style="edgeLabel;html=1;align=center;verticalAlign=middle;resizable=0;points=[];" parent="125" vertex="1" connectable="0">
                    <mxGeometry x="0.2553" y="2" relative="1" as="geometry">
                        <mxPoint x="17" y="-2" as="offset"/>
                    </mxGeometry>
                </mxCell>
                <mxCell id="127" value="&amp;nbsp; 2&amp;nbsp; &amp;nbsp; &amp;nbsp; Файлы пациента (Data file)" style="html=1;dashed=0;whiteSpace=wrap;shape=mxgraph.dfd.dataStoreID;align=left;spacingLeft=3;points=[[0,0],[0.5,0],[1,0],[0,0.5],[1,0.5],[0,1],[0.5,1],[1,1]];noLabel=0;perimeter=none;" parent="1" vertex="1">
                    <mxGeometry x="-240" y="895" width="200" height="30" as="geometry"/>
                </mxCell>
                <mxCell id="129" value="&amp;nbsp; 7&amp;nbsp; &amp;nbsp; &amp;nbsp; Реестр анализов" style="html=1;dashed=0;whiteSpace=wrap;shape=mxgraph.dfd.dataStoreID;align=left;spacingLeft=3;points=[[0,0],[0.5,0],[1,0],[0,0.5],[1,0.5],[0,1],[0.5,1],[1,1]];noLabel=0;perimeter=none;" parent="1" vertex="1">
                    <mxGeometry x="-240" y="980" width="210" height="30" as="geometry"/>
                </mxCell>
                <mxCell id="131" style="edgeStyle=none;html=1;entryX=1;entryY=0.75;entryDx=0;entryDy=0;exitX=-0.005;exitY=0.533;exitDx=0;exitDy=0;exitPerimeter=0;" parent="1" source="129" target="117" edge="1">
                    <mxGeometry relative="1" as="geometry">
                        <mxPoint x="-360" y="1010" as="sourcePoint"/>
                    </mxGeometry>
                </mxCell>
                <mxCell id="132" value="&lt;div style=&quot;scrollbar-color: light-dark(#e2e2e2, #4b4b4b)&lt;br/&gt;&#x9;&#x9;&#x9;&#x9;&#x9;light-dark(#fbfbfb, var(--dark-panel-color));&quot;&gt;Р&lt;span style=&quot;background-color: light-dark(#ffffff, var(--ge-dark-color, #121212));&quot;&gt;езультаты&lt;/span&gt;&lt;/div&gt;&lt;div style=&quot;scrollbar-color: light-dark(#e2e2e2, #4b4b4b)&lt;br/&gt;&#x9;&#x9;&#x9;&#x9;&#x9;light-dark(#fbfbfb, var(--dark-panel-color));&quot;&gt;анализов&lt;/div&gt;" style="edgeLabel;html=1;align=center;verticalAlign=middle;resizable=0;points=[];" parent="131" vertex="1" connectable="0">
                    <mxGeometry x="-0.0141" relative="1" as="geometry">
                        <mxPoint x="-16" y="-4" as="offset"/>
                    </mxGeometry>
                </mxCell>
                <mxCell id="133" value="&lt;p style=&quot;margin: 4px 0px 0px;&quot;&gt;&lt;strong style=&quot;&quot;&gt;7.0&lt;br&gt;&lt;/strong&gt;&lt;/p&gt;&lt;hr&gt;&lt;p style=&quot;margin: 0px; margin-left: 8px;&quot;&gt;Получение&amp;nbsp;&lt;/p&gt;&lt;p style=&quot;margin: 0px; margin-left: 8px;&quot;&gt;результатов&lt;/p&gt;&lt;p style=&quot;margin: 0px; margin-left: 8px;&quot;&gt;анализов&lt;/p&gt;" style="verticalAlign=middle;align=center;overflow=fill;fontSize=12;fontFamily=Helvetica;html=1;rounded=0;fontStyle=1;strokeWidth=1;spacing=2;arcSize=14;fillColor=#fff2cc;strokeColor=#d6b656;" parent="1" vertex="1">
                    <mxGeometry x="-560" y="1030" width="150" height="80" as="geometry"/>
                </mxCell>
                <mxCell id="134" style="edgeStyle=none;html=1;exitX=1;exitY=0.5;exitDx=0;exitDy=0;entryX=0;entryY=0.5;entryDx=0;entryDy=0;" parent="1" source="136" target="133" edge="1">
                    <mxGeometry relative="1" as="geometry"/>
                </mxCell>
                <mxCell id="135" value="&lt;div style=&quot;scrollbar-color: light-dark(#e2e2e2, #4b4b4b)&lt;br/&gt;&#x9;&#x9;&#x9;&#x9;&#x9;light-dark(#fbfbfb, var(--dark-panel-color));&quot;&gt;Р&lt;span style=&quot;scrollbar-color: light-dark(#e2e2e2, #4b4b4b)&lt;br/&gt;&#x9;&#x9;&#x9;&#x9;&#x9;light-dark(#fbfbfb, var(--dark-panel-color)); background-color: light-dark(#ffffff, var(--ge-dark-color, #121212));&quot;&gt;езультаты&lt;/span&gt;&lt;/div&gt;&lt;div style=&quot;scrollbar-color: light-dark(#e2e2e2, #4b4b4b)&lt;br/&gt;&#x9;&#x9;&#x9;&#x9;&#x9;light-dark(#fbfbfb, var(--dark-panel-color));&quot;&gt;анализов&lt;/div&gt;" style="edgeLabel;html=1;align=center;verticalAlign=middle;resizable=0;points=[];" parent="134" vertex="1" connectable="0">
                    <mxGeometry x="-0.0222" y="-3" relative="1" as="geometry">
                        <mxPoint as="offset"/>
                    </mxGeometry>
                </mxCell>
                <mxCell id="136" value="Лаборатория&#xa;(внешняя система)" style="whiteSpace=wrap;align=center;verticalAlign=middle;fontStyle=1;strokeWidth=1;fillColor=#dae8fc;strokeColor=#6c8ebf;rounded=0;" parent="1" vertex="1">
                    <mxGeometry x="-800" y="1040" width="90" height="60" as="geometry"/>
                </mxCell>
                <mxCell id="143" value="&amp;nbsp; 7&amp;nbsp; &amp;nbsp; &amp;nbsp; Реестр анализов" style="html=1;dashed=0;whiteSpace=wrap;shape=mxgraph.dfd.dataStoreID;align=left;spacingLeft=3;points=[[0,0],[0.5,0],[1,0],[0,0.5],[1,0.5],[0,1],[0.5,1],[1,1]];noLabel=0;perimeter=none;" parent="1" vertex="1">
                    <mxGeometry x="-240" y="1055" width="210" height="30" as="geometry"/>
                </mxCell>
                <mxCell id="144" style="edgeStyle=none;html=1;exitX=1;exitY=0.5;exitDx=0;exitDy=0;entryX=-0.014;entryY=0.467;entryDx=0;entryDy=0;entryPerimeter=0;" parent="1" source="133" target="143" edge="1">
                    <mxGeometry relative="1" as="geometry">
                        <mxPoint x="-360" y="1170" as="sourcePoint"/>
                        <mxPoint x="-330" y="1190" as="targetPoint"/>
                    </mxGeometry>
                </mxCell>
                <mxCell id="145" value="&lt;div style=&quot;scrollbar-color: light-dark(#e2e2e2, #4b4b4b)&lt;br/&gt;&#x9;&#x9;&#x9;&#x9;&#x9;light-dark(#fbfbfb, var(--dark-panel-color));&quot;&gt;Р&lt;span style=&quot;background-color: light-dark(#ffffff, var(--ge-dark-color, #121212));&quot;&gt;езультаты&lt;/span&gt;&lt;/div&gt;&lt;div style=&quot;scrollbar-color: light-dark(#e2e2e2, #4b4b4b)&lt;br/&gt;&#x9;&#x9;&#x9;&#x9;&#x9;light-dark(#fbfbfb, var(--dark-panel-color));&quot;&gt;анализов&lt;/div&gt;" style="edgeLabel;html=1;align=center;verticalAlign=middle;resizable=0;points=[];" parent="144" vertex="1" connectable="0">
                    <mxGeometry x="-0.0141" relative="1" as="geometry">
                        <mxPoint x="-16" y="-4" as="offset"/>
                    </mxGeometry>
                </mxCell>
                <mxCell id="147" value="&lt;p style=&quot;margin: 4px 0px 0px;&quot;&gt;&lt;strong style=&quot;&quot;&gt;5.0&lt;br&gt;&lt;/strong&gt;&lt;/p&gt;&lt;hr&gt;&lt;p style=&quot;margin: 0px; margin-left: 8px;&quot;&gt;Процесс&lt;/p&gt;&lt;p style=&quot;margin: 0px; margin-left: 8px;&quot;&gt;платежей&lt;/p&gt;" style="verticalAlign=middle;align=center;overflow=fill;fontSize=12;fontFamily=Helvetica;html=1;rounded=0;fontStyle=1;strokeWidth=1;spacing=2;arcSize=14;fillColor=#fff2cc;strokeColor=#d6b656;" parent="1" vertex="1">
                    <mxGeometry x="-560" y="720" width="150" height="80" as="geometry"/>
                </mxCell>
                <mxCell id="154" style="edgeStyle=none;html=1;exitX=1;exitY=0.5;exitDx=0;exitDy=0;entryX=0;entryY=0.5;entryDx=0;entryDy=0;" parent="1" source="150" target="147" edge="1">
                    <mxGeometry relative="1" as="geometry"/>
                </mxCell>
                <mxCell id="155" value="Движение&lt;div&gt;денежных&amp;nbsp;&lt;div&gt;средств&lt;/div&gt;&lt;/div&gt;" style="edgeLabel;html=1;align=center;verticalAlign=middle;resizable=0;points=[];" parent="154" vertex="1" connectable="0">
                    <mxGeometry x="0.0933" y="1" relative="1" as="geometry">
                        <mxPoint as="offset"/>
                    </mxGeometry>
                </mxCell>
                <mxCell id="150" value="Бухгалтер" style="whiteSpace=wrap;align=center;verticalAlign=middle;fontStyle=1;strokeWidth=1;fillColor=#d5e8d4;strokeColor=#82b366;rounded=0;" parent="1" vertex="1">
                    <mxGeometry x="-800" y="730" width="90" height="60" as="geometry"/>
                </mxCell>
                <mxCell id="151" value="&amp;nbsp; 6&amp;nbsp; &amp;nbsp; &amp;nbsp; &amp;nbsp;Файловая БД 1С Бухгалтерия" style="html=1;dashed=0;whiteSpace=wrap;shape=mxgraph.dfd.dataStoreID;align=left;spacingLeft=3;points=[[0,0],[0.5,0],[1,0],[0,0.5],[1,0.5],[0,1],[0.5,1],[1,1]];noLabel=0;perimeter=none;" parent="1" vertex="1">
                    <mxGeometry x="-280" y="780" width="260" height="30" as="geometry"/>
                </mxCell>
                <mxCell id="152" style="edgeStyle=none;html=1;exitX=1;exitY=0.75;exitDx=0;exitDy=0;entryX=-0.005;entryY=0.467;entryDx=0;entryDy=0;entryPerimeter=0;startArrow=none;startFill=0;" parent="1" source="147" target="151" edge="1">
                    <mxGeometry relative="1" as="geometry"/>
                </mxCell>
                <mxCell id="153" value="Движение&lt;div&gt;&lt;font color=&quot;#000000&quot;&gt;денежных&lt;br&gt;&lt;/font&gt;&lt;div&gt;средств&lt;/div&gt;&lt;/div&gt;" style="edgeLabel;html=1;align=center;verticalAlign=middle;resizable=0;points=[];" parent="152" vertex="1" connectable="0">
                    <mxGeometry x="-0.1349" y="-1" relative="1" as="geometry">
                        <mxPoint x="4" y="8" as="offset"/>
                    </mxGeometry>
                </mxCell>
                <mxCell id="156" value="&amp;nbsp; 5&amp;nbsp; &amp;nbsp; &amp;nbsp; &amp;nbsp;Файловая БД 1С Торговля и Склад" style="html=1;dashed=0;whiteSpace=wrap;shape=mxgraph.dfd.dataStoreID;align=left;spacingLeft=3;points=[[0,0],[0.5,0],[1,0],[0,0.5],[1,0.5],[0,1],[0.5,1],[1,1]];noLabel=0;perimeter=none;" parent="1" vertex="1">
                    <mxGeometry x="-280" y="710" width="260" height="30" as="geometry"/>
                </mxCell>
                <mxCell id="157" style="edgeStyle=none;html=1;exitX=-0.015;exitY=0.5;exitDx=0;exitDy=0;exitPerimeter=0;entryX=1;entryY=0.25;entryDx=0;entryDy=0;" parent="1" source="156" target="147" edge="1">
                    <mxGeometry relative="1" as="geometry">
                        <mxPoint x="-370" y="690" as="targetPoint"/>
                    </mxGeometry>
                </mxCell>
                <mxCell id="158" value="Данные&amp;nbsp;&lt;div&gt;ТМЦ&lt;/div&gt;" style="edgeLabel;html=1;align=center;verticalAlign=middle;resizable=0;points=[];" parent="157" vertex="1" connectable="0">
                    <mxGeometry x="-0.0158" relative="1" as="geometry">
                        <mxPoint x="-1" as="offset"/>
                    </mxGeometry>
                </mxCell>
            </root>
        </mxGraphModel>
    </diagram>
    <diagram id="v32JYYCwJMbOyLtnr34d" name="TO-BE">
        <mxGraphModel dx="1772" dy="796" grid="1" gridSize="10" guides="1" tooltips="1" connect="1" arrows="1" fold="1" page="1" pageScale="1" pageWidth="827" pageHeight="1169" math="0" shadow="0">
            <root>
                <mxCell id="0"/>
                <mxCell id="1" parent="0"/>
                <mxCell id="Y9_rqvKDEg1pFthm3hxa-1" style="edgeStyle=none;html=1;exitX=1;exitY=0.5;exitDx=0;exitDy=0;entryX=0;entryY=0.5;entryDx=0;entryDy=0;" parent="1" source="Y9_rqvKDEg1pFthm3hxa-3" target="Y9_rqvKDEg1pFthm3hxa-4" edge="1">
                    <mxGeometry relative="1" as="geometry"/>
                </mxCell>
                <mxCell id="Y9_rqvKDEg1pFthm3hxa-2" value="&lt;div style=&quot;scrollbar-color: light-dark(#e2e2e2, #4b4b4b)&lt;br/&gt;&#x9;&#x9;&#x9;&#x9;&#x9;light-dark(#fbfbfb, var(--dark-panel-color));&quot;&gt;Данные пациента,&lt;/div&gt;&lt;div style=&quot;scrollbar-color: light-dark(#e2e2e2, #4b4b4b)&lt;br/&gt;&#x9;&#x9;&#x9;&#x9;&#x9;light-dark(#fbfbfb, var(--dark-panel-color));&quot;&gt;включая&amp;nbsp;&lt;/div&gt;&lt;div style=&quot;scrollbar-color: light-dark(#e2e2e2, #4b4b4b)&lt;br/&gt;&#x9;&#x9;&#x9;&#x9;&#x9;light-dark(#fbfbfb, var(--dark-panel-color));&quot;&gt;конфиденциальные&lt;/div&gt;" style="edgeLabel;html=1;align=center;verticalAlign=middle;resizable=0;points=[];" parent="Y9_rqvKDEg1pFthm3hxa-1" vertex="1" connectable="0">
                    <mxGeometry x="0.1655" y="-5" relative="1" as="geometry">
                        <mxPoint x="-16" y="-5" as="offset"/>
                    </mxGeometry>
                </mxCell>
                <mxCell id="Y9_rqvKDEg1pFthm3hxa-3" value="Сотрудник ресепшена" style="whiteSpace=wrap;align=center;verticalAlign=middle;fontStyle=1;strokeWidth=1;fillColor=#d5e8d4;strokeColor=#82b366;rounded=0;" parent="1" vertex="1">
                    <mxGeometry x="-800" y="110" width="90" height="60" as="geometry"/>
                </mxCell>
                <mxCell id="Y9_rqvKDEg1pFthm3hxa-4" value="&lt;p style=&quot;margin: 4px 0px 0px;&quot;&gt;&lt;strong style=&quot;&quot;&gt;1.0&lt;/strong&gt;&lt;/p&gt;&lt;hr&gt;&lt;p style=&quot;scrollbar-color: light-dark(#e2e2e2, #4b4b4b)&lt;br/&gt;&#x9;&#x9;&#x9;&#x9;&#x9;light-dark(#fbfbfb, var(--dark-panel-color)); margin: 0px 0px 0px 8px;&quot;&gt;Зарегистрировать&lt;/p&gt;&lt;p style=&quot;scrollbar-color: light-dark(#e2e2e2, #4b4b4b)&lt;br/&gt;&#x9;&#x9;&#x9;&#x9;&#x9;light-dark(#fbfbfb, var(--dark-panel-color)); margin: 0px 0px 0px 8px;&quot;&gt;пациента&amp;nbsp;&lt;span style=&quot;scrollbar-color: light-dark(#e2e2e2, #4b4b4b)&lt;br/&gt;&#x9;&#x9;&#x9;&#x9;&#x9;light-dark(#fbfbfb, var(--dark-panel-color)); background-color: transparent;&quot;&gt;в системе&lt;/span&gt;&lt;/p&gt;" style="verticalAlign=middle;align=center;overflow=fill;fontSize=12;fontFamily=Helvetica;html=1;rounded=0;fontStyle=1;strokeWidth=1;spacing=2;arcSize=14;fillColor=#fff2cc;strokeColor=#d6b656;" parent="1" vertex="1">
                    <mxGeometry x="-580" y="100" width="150" height="80" as="geometry"/>
                </mxCell>
                <mxCell id="Y9_rqvKDEg1pFthm3hxa-5" value="&amp;nbsp; 1&amp;nbsp; &amp;nbsp; &amp;nbsp; Patients" style="html=1;dashed=0;whiteSpace=wrap;shape=mxgraph.dfd.dataStoreID;align=left;spacingLeft=3;points=[[0,0],[0.5,0],[1,0],[0,0.5],[1,0.5],[0,1],[0.5,1],[1,1]];noLabel=0;perimeter=none;" parent="1" vertex="1">
                    <mxGeometry x="-240" y="40" width="130" height="30" as="geometry"/>
                </mxCell>
                <mxCell id="Y9_rqvKDEg1pFthm3hxa-6" value="&amp;nbsp; 2&amp;nbsp; &amp;nbsp; &amp;nbsp; Файлы пациента" style="html=1;dashed=0;whiteSpace=wrap;shape=mxgraph.dfd.dataStoreID;align=left;spacingLeft=3;points=[[0,0],[0.5,0],[1,0],[0,0.5],[1,0.5],[0,1],[0.5,1],[1,1]];noLabel=0;perimeter=none;" parent="1" vertex="1">
                    <mxGeometry x="-240" y="170" width="155" height="30" as="geometry"/>
                </mxCell>
                <mxCell id="Y9_rqvKDEg1pFthm3hxa-9" style="edgeStyle=none;html=1;entryX=-0.005;entryY=0.567;entryDx=0;entryDy=0;entryPerimeter=0;exitX=1;exitY=0.75;exitDx=0;exitDy=0;" parent="1" source="Y9_rqvKDEg1pFthm3hxa-4" target="Y9_rqvKDEg1pFthm3hxa-6" edge="1">
                    <mxGeometry relative="1" as="geometry">
                        <mxPoint x="-360" y="175" as="sourcePoint"/>
                    </mxGeometry>
                </mxCell>
                <mxCell id="Y9_rqvKDEg1pFthm3hxa-10" value="&lt;div style=&quot;scrollbar-color: light-dark(#e2e2e2, #4b4b4b)&lt;br/&gt;&#x9;&#x9;&#x9;&#x9;&#x9;light-dark(#fbfbfb, var(--dark-panel-color));&quot;&gt;&lt;span style=&quot;scrollbar-color: light-dark(#e2e2e2, #4b4b4b)&lt;br/&gt;&#x9;&#x9;&#x9;&#x9;&#x9;light-dark(#fbfbfb, var(--dark-panel-color)); color: rgb(63, 63, 63);&quot;&gt;Шифрованные&lt;/span&gt;&lt;/div&gt;&lt;div style=&quot;scrollbar-color: light-dark(#e2e2e2, #4b4b4b)&lt;br/&gt;&#x9;&#x9;&#x9;&#x9;&#x9;light-dark(#fbfbfb, var(--dark-panel-color));&quot;&gt;&lt;div style=&quot;scrollbar-color: light-dark(#e2e2e2, #4b4b4b)&lt;br/&gt;&#x9;&#x9;&#x9;&#x9;&#x9;light-dark(#fbfbfb, var(--dark-panel-color));&quot;&gt;&lt;span style=&quot;scrollbar-color: light-dark(#e2e2e2, #4b4b4b)&lt;br/&gt;&#x9;&#x9;&#x9;&#x9;&#x9;light-dark(#fbfbfb, var(--dark-panel-color)); color: rgb(63, 63, 63);&quot;&gt;&lt;div style=&quot;scrollbar-color: light-dark(#e2e2e2, #4b4b4b)&lt;br/&gt;&#x9;&#x9;&#x9;&#x9;&#x9;light-dark(#fbfbfb, var(--dark-panel-color));&quot;&gt;файлы пациента&lt;/div&gt;&lt;div style=&quot;scrollbar-color: light-dark(#e2e2e2, #4b4b4b)&lt;br/&gt;&#x9;&#x9;&#x9;&#x9;&#x9;light-dark(#fbfbfb, var(--dark-panel-color));&quot;&gt;&lt;div style=&quot;scrollbar-color: light-dark(#e2e2e2, #4b4b4b)&lt;br/&gt;&#x9;&#x9;&#x9;&#x9;&#x9;light-dark(#fbfbfb, var(--dark-panel-color)); color: rgb(63, 63, 63);&quot;&gt;&lt;b&gt;tags:&amp;nbsp;&lt;span style=&quot;background-color: light-dark(#ffffff, var(--ge-dark-color, #121212));&quot;&gt;patient_private&lt;/span&gt;&lt;/b&gt;&lt;/div&gt;&lt;/div&gt;&lt;/span&gt;&lt;/div&gt;&lt;/div&gt;" style="edgeLabel;html=1;align=center;verticalAlign=middle;resizable=0;points=[];" parent="Y9_rqvKDEg1pFthm3hxa-9" vertex="1" connectable="0">
                    <mxGeometry x="0.0579" y="2" relative="1" as="geometry">
                        <mxPoint x="-8" y="-2" as="offset"/>
                    </mxGeometry>
                </mxCell>
                <mxCell id="Y9_rqvKDEg1pFthm3hxa-11" value="&lt;p style=&quot;margin: 4px 0px 0px;&quot;&gt;&lt;strong style=&quot;&quot;&gt;2.0&lt;br&gt;&lt;/strong&gt;&lt;/p&gt;&lt;hr&gt;&lt;p style=&quot;margin: 0px; margin-left: 8px;&quot;&gt;Запись&amp;nbsp;&lt;/p&gt;&lt;p style=&quot;margin: 0px; margin-left: 8px;&quot;&gt;к специалисту&lt;/p&gt;" style="verticalAlign=middle;align=center;overflow=fill;fontSize=12;fontFamily=Helvetica;html=1;rounded=0;fontStyle=1;strokeWidth=1;spacing=2;arcSize=14;fillColor=#fff2cc;strokeColor=#d6b656;" parent="1" vertex="1">
                    <mxGeometry x="-580" y="300" width="150" height="80" as="geometry"/>
                </mxCell>
                <mxCell id="Y9_rqvKDEg1pFthm3hxa-12" style="edgeStyle=none;html=1;exitX=1;exitY=0.5;exitDx=0;exitDy=0;entryX=0;entryY=0.5;entryDx=0;entryDy=0;" parent="1" source="Y9_rqvKDEg1pFthm3hxa-14" target="Y9_rqvKDEg1pFthm3hxa-11" edge="1">
                    <mxGeometry relative="1" as="geometry"/>
                </mxCell>
                <mxCell id="Y9_rqvKDEg1pFthm3hxa-13" value="Время,&amp;nbsp;&lt;div&gt;спрециалист&lt;/div&gt;" style="edgeLabel;html=1;align=center;verticalAlign=middle;resizable=0;points=[];" parent="Y9_rqvKDEg1pFthm3hxa-12" vertex="1" connectable="0">
                    <mxGeometry x="-0.0222" y="-3" relative="1" as="geometry">
                        <mxPoint as="offset"/>
                    </mxGeometry>
                </mxCell>
                <mxCell id="Y9_rqvKDEg1pFthm3hxa-14" value="Сотрудник ресепшена" style="whiteSpace=wrap;align=center;verticalAlign=middle;fontStyle=1;strokeWidth=1;fillColor=#d5e8d4;strokeColor=#82b366;rounded=0;" parent="1" vertex="1">
                    <mxGeometry x="-800" y="310" width="90" height="60" as="geometry"/>
                </mxCell>
                <mxCell id="Y9_rqvKDEg1pFthm3hxa-15" style="edgeStyle=none;html=1;entryX=1;entryY=0.25;entryDx=0;entryDy=0;exitX=-0.01;exitY=0.5;exitDx=0;exitDy=0;exitPerimeter=0;" parent="1" source="Y9_rqvKDEg1pFthm3hxa-17" target="Y9_rqvKDEg1pFthm3hxa-11" edge="1">
                    <mxGeometry relative="1" as="geometry">
                        <mxPoint x="-390" y="290" as="sourcePoint"/>
                    </mxGeometry>
                </mxCell>
                <mxCell id="Y9_rqvKDEg1pFthm3hxa-16" value="&lt;div style=&quot;scrollbar-color: light-dark(#e2e2e2, #4b4b4b)&lt;br/&gt;&#x9;&#x9;&#x9;&#x9;&#x9;light-dark(#fbfbfb, var(--dark-panel-color));&quot;&gt;&lt;div style=&quot;scrollbar-color: light-dark(#e2e2e2, #4b4b4b)&lt;br/&gt;&#x9;&#x9;&#x9;&#x9;&#x9;light-dark(#fbfbfb, var(--dark-panel-color));&quot;&gt;&lt;div style=&quot;scrollbar-color: light-dark(#e2e2e2, #4b4b4b)&lt;br/&gt;&#x9;&#x9;&#x9;&#x9;&#x9;light-dark(#fbfbfb, var(--dark-panel-color));&quot;&gt;&lt;span style=&quot;background-color: light-dark(#ffffff, var(--ge-dark-color, #121212));&quot;&gt;Дешифрованные&amp;nbsp;&lt;/span&gt;&lt;/div&gt;&lt;div style=&quot;scrollbar-color: light-dark(#e2e2e2, #4b4b4b)&lt;br/&gt;&#x9;&#x9;&#x9;&#x9;&#x9;light-dark(#fbfbfb, var(--dark-panel-color));&quot;&gt;&lt;span style=&quot;background-color: light-dark(#ffffff, var(--ge-dark-color, #121212));&quot;&gt;данные&amp;nbsp;&lt;/span&gt;&lt;br&gt;&lt;/div&gt;&lt;div style=&quot;scrollbar-color: light-dark(#e2e2e2, #4b4b4b)&lt;br/&gt;&#x9;&#x9;&#x9;&#x9;&#x9;light-dark(#fbfbfb, var(--dark-panel-color));&quot;&gt;&lt;span style=&quot;scrollbar-color: light-dark(#e2e2e2, #4b4b4b)&lt;br/&gt;&#x9;&#x9;&#x9;&#x9;&#x9;light-dark(#fbfbfb, var(--dark-panel-color)); color: rgb(63, 63, 63);&quot;&gt;пациента,&lt;br style=&quot;scrollbar-color: light-dark(#e2e2e2, #4b4b4b)&lt;br/&gt;&#x9;&#x9;&#x9;&#x9;&#x9;light-dark(#fbfbfb, var(--dark-panel-color));&quot;&gt;&lt;/span&gt;&lt;div style=&quot;scrollbar-color: light-dark(#e2e2e2, #4b4b4b)&lt;br/&gt;&#x9;&#x9;&#x9;&#x9;&#x9;light-dark(#fbfbfb, var(--dark-panel-color)); color: rgb(63, 63, 63);&quot;&gt;исключая&lt;/div&gt;&lt;div style=&quot;scrollbar-color: light-dark(#e2e2e2, #4b4b4b)&lt;br/&gt;&#x9;&#x9;&#x9;&#x9;&#x9;light-dark(#fbfbfb, var(--dark-panel-color)); color: rgb(63, 63, 63);&quot;&gt;конфиденциальные&lt;/div&gt;&lt;div style=&quot;scrollbar-color: light-dark(#e2e2e2, #4b4b4b)&lt;br/&gt;&#x9;&#x9;&#x9;&#x9;&#x9;light-dark(#fbfbfb, var(--dark-panel-color)); color: rgb(63, 63, 63);&quot;&gt;&lt;span style=&quot;color: rgb(63, 63, 63);&quot;&gt;&lt;b&gt;tags: patient_protected&lt;/b&gt;&lt;/span&gt;&lt;br&gt;&lt;/div&gt;&lt;/div&gt;&lt;/div&gt;&lt;/div&gt;" style="edgeLabel;html=1;align=center;verticalAlign=middle;resizable=0;points=[];" parent="Y9_rqvKDEg1pFthm3hxa-15" vertex="1" connectable="0">
                    <mxGeometry x="-0.0905" relative="1" as="geometry">
                        <mxPoint x="-12" as="offset"/>
                    </mxGeometry>
                </mxCell>
                <mxCell id="Y9_rqvKDEg1pFthm3hxa-17" value="&amp;nbsp; 1&amp;nbsp; &amp;nbsp; &amp;nbsp;&amp;nbsp;&lt;span style=&quot;color: rgb(0, 0, 0);&quot;&gt;Patients&lt;/span&gt;" style="html=1;dashed=0;whiteSpace=wrap;shape=mxgraph.dfd.dataStoreID;align=left;spacingLeft=3;points=[[0,0],[0.5,0],[1,0],[0,0.5],[1,0.5],[0,1],[0.5,1],[1,1]];noLabel=0;perimeter=none;" parent="1" vertex="1">
                    <mxGeometry x="-240" y="240" width="210" height="30" as="geometry"/>
                </mxCell>
                <mxCell id="Y9_rqvKDEg1pFthm3hxa-18" value="&amp;nbsp; 3&amp;nbsp; &amp;nbsp; &amp;nbsp; &amp;nbsp;Schedule" style="html=1;dashed=0;whiteSpace=wrap;shape=mxgraph.dfd.dataStoreID;align=left;spacingLeft=3;points=[[0,0],[0.5,0],[1,0],[0,0.5],[1,0.5],[0,1],[0.5,1],[1,1]];noLabel=0;perimeter=none;" parent="1" vertex="1">
                    <mxGeometry x="-240" y="400" width="210" height="30" as="geometry"/>
                </mxCell>
                <mxCell id="Y9_rqvKDEg1pFthm3hxa-19" style="edgeStyle=none;html=1;exitX=1;exitY=0.75;exitDx=0;exitDy=0;entryX=-0.014;entryY=0.467;entryDx=0;entryDy=0;entryPerimeter=0;" parent="1" source="Y9_rqvKDEg1pFthm3hxa-11" target="Y9_rqvKDEg1pFthm3hxa-18" edge="1">
                    <mxGeometry relative="1" as="geometry"/>
                </mxCell>
                <mxCell id="Y9_rqvKDEg1pFthm3hxa-20" value="&lt;div style=&quot;color: rgb(63, 63, 63); scrollbar-color: light-dark(#e2e2e2, #4b4b4b)&lt;br/&gt;&#x9;&#x9;&#x9;&#x9;&#x9;light-dark(#fbfbfb, var(--dark-panel-color));&quot;&gt;Шифррованные&lt;/div&gt;&lt;div style=&quot;color: rgb(63, 63, 63); scrollbar-color: light-dark(#e2e2e2, #4b4b4b)&lt;br/&gt;&#x9;&#x9;&#x9;&#x9;&#x9;light-dark(#fbfbfb, var(--dark-panel-color));&quot;&gt;&lt;span style=&quot;scrollbar-color: light-dark(#e2e2e2, #4b4b4b)&lt;br/&gt;&#x9;&#x9;&#x9;&#x9;&#x9;light-dark(#fbfbfb, var(--dark-panel-color)); color: rgb(63, 63, 63);&quot;&gt;Токен&amp;nbsp;&amp;nbsp;&lt;/span&gt;&lt;span style=&quot;background-color: light-dark(#ffffff, var(--ge-dark-color, #121212));&quot;&gt;пациента,&lt;/span&gt;&lt;/div&gt;&lt;div style=&quot;color: rgb(63, 63, 63); scrollbar-color: light-dark(#e2e2e2, #4b4b4b)&lt;br/&gt;&#x9;&#x9;&#x9;&#x9;&#x9;light-dark(#fbfbfb, var(--dark-panel-color));&quot;&gt;&lt;span style=&quot;scrollbar-color: light-dark(#e2e2e2, #4b4b4b)&lt;br/&gt;&#x9;&#x9;&#x9;&#x9;&#x9;light-dark(#fbfbfb, var(--dark-panel-color)); color: rgb(63, 63, 63);&quot;&gt;&lt;span style=&quot;color: rgb(0, 0, 0);&quot;&gt;время,&amp;nbsp;&lt;/span&gt;&lt;div style=&quot;scrollbar-color: light-dark(#e2e2e2, #4b4b4b)&lt;br/&gt;&#x9;&#x9;&#x9;&#x9;&#x9;light-dark(#fbfbfb, var(--dark-panel-color));&quot;&gt;спрециалист,&lt;/div&gt;&lt;div style=&quot;scrollbar-color: light-dark(#e2e2e2, #4b4b4b)&lt;br/&gt;&#x9;&#x9;&#x9;&#x9;&#x9;light-dark(#fbfbfb, var(--dark-panel-color));&quot;&gt;счет на оплату&lt;/div&gt;&lt;div style=&quot;scrollbar-color: light-dark(#e2e2e2, #4b4b4b)&lt;br/&gt;&#x9;&#x9;&#x9;&#x9;&#x9;light-dark(#fbfbfb, var(--dark-panel-color));&quot;&gt;&lt;b&gt;tags: medikamente_private&lt;/b&gt;&lt;/div&gt;&lt;/span&gt;&lt;/div&gt;" style="edgeLabel;html=1;align=center;verticalAlign=middle;resizable=0;points=[];" parent="Y9_rqvKDEg1pFthm3hxa-19" vertex="1" connectable="0">
                    <mxGeometry x="-0.1581" y="3" relative="1" as="geometry">
                        <mxPoint as="offset"/>
                    </mxGeometry>
                </mxCell>
                <mxCell id="Y9_rqvKDEg1pFthm3hxa-21" value="&lt;p style=&quot;margin: 4px 0px 0px;&quot;&gt;&lt;strong style=&quot;&quot;&gt;3.0&lt;br&gt;&lt;/strong&gt;&lt;/p&gt;&lt;hr&gt;&lt;p style=&quot;margin: 0px; margin-left: 8px;&quot;&gt;Оплата&amp;nbsp;&lt;/p&gt;&lt;p style=&quot;margin: 0px; margin-left: 8px;&quot;&gt;услуг&lt;/p&gt;" style="verticalAlign=middle;align=center;overflow=fill;fontSize=12;fontFamily=Helvetica;html=1;rounded=0;fontStyle=1;strokeWidth=1;spacing=2;arcSize=14;fillColor=#fff2cc;strokeColor=#d6b656;" parent="1" vertex="1">
                    <mxGeometry x="-580" y="480" width="150" height="80" as="geometry"/>
                </mxCell>
                <mxCell id="Y9_rqvKDEg1pFthm3hxa-22" style="edgeStyle=none;html=1;exitX=1;exitY=0.5;exitDx=0;exitDy=0;entryX=0;entryY=0.5;entryDx=0;entryDy=0;" parent="1" source="Y9_rqvKDEg1pFthm3hxa-24" target="Y9_rqvKDEg1pFthm3hxa-21" edge="1">
                    <mxGeometry relative="1" as="geometry"/>
                </mxCell>
                <mxCell id="Y9_rqvKDEg1pFthm3hxa-23" value="Принятие&lt;div&gt;оплаты&lt;/div&gt;" style="edgeLabel;html=1;align=center;verticalAlign=middle;resizable=0;points=[];" parent="Y9_rqvKDEg1pFthm3hxa-22" vertex="1" connectable="0">
                    <mxGeometry x="-0.0222" y="-3" relative="1" as="geometry">
                        <mxPoint as="offset"/>
                    </mxGeometry>
                </mxCell>
                <mxCell id="Y9_rqvKDEg1pFthm3hxa-24" value="Кассир" style="whiteSpace=wrap;align=center;verticalAlign=middle;fontStyle=1;strokeWidth=1;fillColor=#d5e8d4;strokeColor=#82b366;rounded=0;" parent="1" vertex="1">
                    <mxGeometry x="-800" y="490" width="90" height="60" as="geometry"/>
                </mxCell>
                <mxCell id="Y9_rqvKDEg1pFthm3hxa-25" value="&amp;nbsp; 4&amp;nbsp; &amp;nbsp; &amp;nbsp; &amp;nbsp;Файловая БД 1С Бухгалтерия" style="html=1;dashed=0;whiteSpace=wrap;shape=mxgraph.dfd.dataStoreID;align=left;spacingLeft=3;points=[[0,0],[0.5,0],[1,0],[0,0.5],[1,0.5],[0,1],[0.5,1],[1,1]];noLabel=0;perimeter=none;" parent="1" vertex="1">
                    <mxGeometry x="-240" y="560" width="210" height="30" as="geometry"/>
                </mxCell>
                <mxCell id="Y9_rqvKDEg1pFthm3hxa-26" value="&amp;nbsp; 3&amp;nbsp; &amp;nbsp; &amp;nbsp;&amp;nbsp;&lt;span style=&quot;color: rgb(0, 0, 0);&quot;&gt;Schedule&lt;/span&gt;" style="html=1;dashed=0;whiteSpace=wrap;shape=mxgraph.dfd.dataStoreID;align=left;spacingLeft=3;points=[[0,0],[0.5,0],[1,0],[0,0.5],[1,0.5],[0,1],[0.5,1],[1,1]];noLabel=0;perimeter=none;" parent="1" vertex="1">
                    <mxGeometry x="-240" y="450" width="210" height="30" as="geometry"/>
                </mxCell>
                <mxCell id="Y9_rqvKDEg1pFthm3hxa-27" style="edgeStyle=none;html=1;exitX=1;exitY=0.75;exitDx=0;exitDy=0;entryX=-0.005;entryY=0.467;entryDx=0;entryDy=0;entryPerimeter=0;startArrow=none;startFill=0;" parent="1" source="Y9_rqvKDEg1pFthm3hxa-21" target="Y9_rqvKDEg1pFthm3hxa-25" edge="1">
                    <mxGeometry relative="1" as="geometry"/>
                </mxCell>
                <mxCell id="Y9_rqvKDEg1pFthm3hxa-28" value="&lt;div&gt;&lt;span style=&quot;color: rgb(0, 0, 0);&quot;&gt;Шифрованные данные о&lt;/span&gt;&lt;/div&gt;&lt;span style=&quot;color: rgb(0, 0, 0);&quot;&gt;движении ДС&lt;/span&gt;&lt;div&gt;&lt;span style=&quot;color: rgb(0, 0, 0);&quot;&gt;&lt;b style=&quot;scrollbar-color: light-dark(#e2e2e2, #4b4b4b)&lt;br/&gt;&#x9;&#x9;&#x9;&#x9;&#x9;light-dark(#fbfbfb, var(--dark-panel-color)); color: rgb(63, 63, 63);&quot;&gt;tags: medikamente_private&lt;/b&gt;&lt;br&gt;&lt;/span&gt;&lt;/div&gt;" style="edgeLabel;html=1;align=center;verticalAlign=middle;resizable=0;points=[];" parent="Y9_rqvKDEg1pFthm3hxa-27" vertex="1" connectable="0">
                    <mxGeometry x="-0.1349" y="-1" relative="1" as="geometry">
                        <mxPoint x="18" y="4" as="offset"/>
                    </mxGeometry>
                </mxCell>
                <mxCell id="Y9_rqvKDEg1pFthm3hxa-29" style="edgeStyle=none;html=1;exitX=-0.01;exitY=0.567;exitDx=0;exitDy=0;startArrow=none;startFill=0;exitPerimeter=0;entryX=1;entryY=0.25;entryDx=0;entryDy=0;" parent="1" source="Y9_rqvKDEg1pFthm3hxa-26" target="Y9_rqvKDEg1pFthm3hxa-21" edge="1">
                    <mxGeometry relative="1" as="geometry">
                        <mxPoint x="-390" y="450" as="targetPoint"/>
                    </mxGeometry>
                </mxCell>
                <mxCell id="Y9_rqvKDEg1pFthm3hxa-30" value="&lt;div&gt;Дешифрованный&lt;/div&gt;счет на&amp;nbsp;&lt;div&gt;оплату&lt;/div&gt;&lt;div&gt;&lt;b style=&quot;color: rgb(63, 63, 63); scrollbar-color: light-dark(#e2e2e2, #4b4b4b)&lt;br/&gt;&#x9;&#x9;&#x9;&#x9;&#x9;light-dark(#fbfbfb, var(--dark-panel-color));&quot;&gt;tags: medikamente_private&lt;/b&gt;&lt;br&gt;&lt;/div&gt;" style="edgeLabel;html=1;align=center;verticalAlign=middle;resizable=0;points=[];" parent="Y9_rqvKDEg1pFthm3hxa-29" vertex="1" connectable="0">
                    <mxGeometry x="-0.1095" y="-3" relative="1" as="geometry">
                        <mxPoint x="-3" y="1" as="offset"/>
                    </mxGeometry>
                </mxCell>
                <mxCell id="Y9_rqvKDEg1pFthm3hxa-31" value="&lt;p style=&quot;margin: 4px 0px 0px;&quot;&gt;&lt;strong style=&quot;&quot;&gt;4.0&lt;br&gt;&lt;/strong&gt;&lt;/p&gt;&lt;hr&gt;&lt;p style=&quot;margin: 0px; margin-left: 8px;&quot;&gt;Учет ТМЦ&lt;/p&gt;" style="verticalAlign=middle;align=center;overflow=fill;fontSize=12;fontFamily=Helvetica;html=1;rounded=0;fontStyle=1;strokeWidth=1;spacing=2;arcSize=14;fillColor=#fff2cc;strokeColor=#d6b656;" parent="1" vertex="1">
                    <mxGeometry x="-623" y="640" width="150" height="80" as="geometry"/>
                </mxCell>
                <mxCell id="Y9_rqvKDEg1pFthm3hxa-32" style="edgeStyle=none;html=1;exitX=1;exitY=0.5;exitDx=0;exitDy=0;entryX=0;entryY=0.5;entryDx=0;entryDy=0;" parent="1" source="Y9_rqvKDEg1pFthm3hxa-34" target="Y9_rqvKDEg1pFthm3hxa-31" edge="1">
                    <mxGeometry relative="1" as="geometry"/>
                </mxCell>
                <mxCell id="Y9_rqvKDEg1pFthm3hxa-33" value="Данные ТМЦ" style="edgeLabel;html=1;align=center;verticalAlign=middle;resizable=0;points=[];" parent="Y9_rqvKDEg1pFthm3hxa-32" vertex="1" connectable="0">
                    <mxGeometry x="-0.08" y="1" relative="1" as="geometry">
                        <mxPoint as="offset"/>
                    </mxGeometry>
                </mxCell>
                <mxCell id="Y9_rqvKDEg1pFthm3hxa-34" value="Сотрудник склада" style="whiteSpace=wrap;align=center;verticalAlign=middle;fontStyle=1;strokeWidth=1;fillColor=#d5e8d4;strokeColor=#82b366;rounded=0;" parent="1" vertex="1">
                    <mxGeometry x="-803" y="650" width="90" height="60" as="geometry"/>
                </mxCell>
                <mxCell id="Y9_rqvKDEg1pFthm3hxa-35" value="&amp;nbsp; 5&amp;nbsp; &amp;nbsp; &amp;nbsp; &amp;nbsp;Файловая БД 1С Торговля и Склад" style="html=1;dashed=0;whiteSpace=wrap;shape=mxgraph.dfd.dataStoreID;align=left;spacingLeft=3;points=[[0,0],[0.5,0],[1,0],[0,0.5],[1,0.5],[0,1],[0.5,1],[1,1]];noLabel=0;perimeter=none;" parent="1" vertex="1">
                    <mxGeometry x="-283" y="665" width="260" height="30" as="geometry"/>
                </mxCell>
                <mxCell id="Y9_rqvKDEg1pFthm3hxa-36" style="edgeStyle=none;html=1;exitX=1;exitY=0.5;exitDx=0;exitDy=0;entryX=-0.005;entryY=0.467;entryDx=0;entryDy=0;entryPerimeter=0;startArrow=none;startFill=0;" parent="1" source="Y9_rqvKDEg1pFthm3hxa-31" target="Y9_rqvKDEg1pFthm3hxa-35" edge="1">
                    <mxGeometry relative="1" as="geometry"/>
                </mxCell>
                <mxCell id="Y9_rqvKDEg1pFthm3hxa-37" value="&lt;span style=&quot;color: rgb(0, 0, 0);&quot;&gt;Шифрованные,&lt;/span&gt;&lt;div&gt;&lt;div&gt;&lt;span style=&quot;color: rgb(0, 0, 0);&quot;&gt;Данные ТМЦ&lt;/span&gt;&lt;/div&gt;&lt;/div&gt;&lt;div&gt;&lt;span style=&quot;color: rgb(0, 0, 0);&quot;&gt;&lt;b style=&quot;scrollbar-color: light-dark(#e2e2e2, #4b4b4b)&lt;br/&gt;&#x9;&#x9;&#x9;&#x9;&#x9;light-dark(#fbfbfb, var(--dark-panel-color)); color: rgb(63, 63, 63);&quot;&gt;tags: medikamente_private&lt;/b&gt;&lt;br&gt;&lt;/span&gt;&lt;/div&gt;" style="edgeLabel;html=1;align=center;verticalAlign=middle;resizable=0;points=[];" parent="Y9_rqvKDEg1pFthm3hxa-36" vertex="1" connectable="0">
                    <mxGeometry x="-0.1349" y="-1" relative="1" as="geometry">
                        <mxPoint as="offset"/>
                    </mxGeometry>
                </mxCell>
                <mxCell id="Y9_rqvKDEg1pFthm3hxa-38" value="&lt;p style=&quot;margin: 4px 0px 0px;&quot;&gt;&lt;strong style=&quot;&quot;&gt;6.0&lt;br&gt;&lt;/strong&gt;&lt;/p&gt;&lt;hr&gt;&lt;p style=&quot;margin: 0px; margin-left: 8px;&quot;&gt;Прием пациента&lt;/p&gt;" style="verticalAlign=middle;align=center;overflow=fill;fontSize=12;fontFamily=Helvetica;html=1;rounded=0;fontStyle=1;strokeWidth=1;spacing=2;arcSize=14;fillColor=#fff2cc;strokeColor=#d6b656;" parent="1" vertex="1">
                    <mxGeometry x="-610" y="940" width="150" height="80" as="geometry"/>
                </mxCell>
                <mxCell id="Y9_rqvKDEg1pFthm3hxa-39" style="edgeStyle=none;html=1;exitX=1;exitY=0.5;exitDx=0;exitDy=0;entryX=0;entryY=0.5;entryDx=0;entryDy=0;" parent="1" source="Y9_rqvKDEg1pFthm3hxa-41" target="Y9_rqvKDEg1pFthm3hxa-38" edge="1">
                    <mxGeometry relative="1" as="geometry"/>
                </mxCell>
                <mxCell id="Y9_rqvKDEg1pFthm3hxa-40" value="Клинические&lt;div&gt;данные&lt;/div&gt;" style="edgeLabel;html=1;align=center;verticalAlign=middle;resizable=0;points=[];" parent="Y9_rqvKDEg1pFthm3hxa-39" vertex="1" connectable="0">
                    <mxGeometry x="-0.0222" y="-3" relative="1" as="geometry">
                        <mxPoint as="offset"/>
                    </mxGeometry>
                </mxCell>
                <mxCell id="Y9_rqvKDEg1pFthm3hxa-41" value="Специалист - Медик" style="whiteSpace=wrap;align=center;verticalAlign=middle;fontStyle=1;strokeWidth=1;fillColor=#d5e8d4;strokeColor=#82b366;rounded=0;" parent="1" vertex="1">
                    <mxGeometry x="-800" y="950" width="90" height="60" as="geometry"/>
                </mxCell>
                <mxCell id="Y9_rqvKDEg1pFthm3hxa-42" value="&amp;nbsp; 3&amp;nbsp; &amp;nbsp; &amp;nbsp; &amp;nbsp;&lt;span style=&quot;color: rgb(0, 0, 0);&quot;&gt;Schedule&lt;/span&gt;" style="html=1;dashed=0;whiteSpace=wrap;shape=mxgraph.dfd.dataStoreID;align=left;spacingLeft=3;points=[[0,0],[0.5,0],[1,0],[0,0.5],[1,0.5],[0,1],[0.5,1],[1,1]];noLabel=0;perimeter=none;" parent="1" vertex="1">
                    <mxGeometry x="-240" y="940" width="210" height="30" as="geometry"/>
                </mxCell>
                <mxCell id="Y9_rqvKDEg1pFthm3hxa-43" style="edgeStyle=none;html=1;exitX=1;exitY=0.5;exitDx=0;exitDy=0;entryX=0.005;entryY=0.533;entryDx=0;entryDy=0;entryPerimeter=0;startArrow=classic;startFill=1;" parent="1" source="Y9_rqvKDEg1pFthm3hxa-38" target="Y9_rqvKDEg1pFthm3hxa-47" edge="1">
                    <mxGeometry relative="1" as="geometry">
                        <mxPoint x="-241.04999999999995" y="1014.01" as="targetPoint"/>
                    </mxGeometry>
                </mxCell>
                <mxCell id="Y9_rqvKDEg1pFthm3hxa-44" value="Клинические&lt;div&gt;данные&lt;/div&gt;&lt;div&gt;&lt;b style=&quot;color: rgb(63, 63, 63); scrollbar-color: light-dark(#e2e2e2, #4b4b4b)&lt;br/&gt;&#x9;&#x9;&#x9;&#x9;&#x9;light-dark(#fbfbfb, var(--dark-panel-color));&quot;&gt;tags: medical_private,&lt;/b&gt;&lt;br&gt;&lt;/div&gt;&lt;div&gt;&lt;b style=&quot;color: rgb(63, 63, 63); scrollbar-color: light-dark(#e2e2e2, #4b4b4b)&lt;br/&gt;&#x9;&#x9;&#x9;&#x9;&#x9;light-dark(#fbfbfb, var(--dark-panel-color));&quot;&gt;&lt;b style=&quot;color: rgb(63, 63, 63); scrollbar-color: light-dark(#e2e2e2, #4b4b4b)&lt;br/&gt;&#x9;&#x9;&#x9;&#x9;&#x9;light-dark(#fbfbfb, var(--dark-panel-color));&quot;&gt;patient_private&lt;/b&gt;&lt;br&gt;&lt;/b&gt;&lt;/div&gt;" style="edgeLabel;html=1;align=center;verticalAlign=middle;resizable=0;points=[];" parent="Y9_rqvKDEg1pFthm3hxa-43" vertex="1" connectable="0">
                    <mxGeometry x="-0.1349" y="-1" relative="1" as="geometry">
                        <mxPoint x="80" y="-8" as="offset"/>
                    </mxGeometry>
                </mxCell>
                <mxCell id="Y9_rqvKDEg1pFthm3hxa-45" style="edgeStyle=none;html=1;entryX=1;entryY=0.25;entryDx=0;entryDy=0;exitX=-0.014;exitY=0.433;exitDx=0;exitDy=0;exitPerimeter=0;" parent="1" source="Y9_rqvKDEg1pFthm3hxa-42" target="Y9_rqvKDEg1pFthm3hxa-38" edge="1">
                    <mxGeometry relative="1" as="geometry">
                        <mxPoint x="-390" y="910" as="sourcePoint"/>
                    </mxGeometry>
                </mxCell>
                <mxCell id="Y9_rqvKDEg1pFthm3hxa-46" value="&lt;div style=&quot;scrollbar-color: light-dark(#e2e2e2, #4b4b4b)&lt;br/&gt;&#x9;&#x9;&#x9;&#x9;&#x9;light-dark(#fbfbfb, var(--dark-panel-color)); color: rgb(63, 63, 63);&quot;&gt;&lt;span style=&quot;scrollbar-color: light-dark(#e2e2e2, #4b4b4b)&lt;br/&gt;&#x9;&#x9;&#x9;&#x9;&#x9;light-dark(#fbfbfb, var(--dark-panel-color)); color: rgb(63, 63, 63);&quot;&gt;Дешифрованный&amp;nbsp;&amp;nbsp;&lt;/span&gt;&lt;/div&gt;&lt;div style=&quot;scrollbar-color: light-dark(#e2e2e2, #4b4b4b)&lt;br/&gt;&#x9;&#x9;&#x9;&#x9;&#x9;light-dark(#fbfbfb, var(--dark-panel-color)); color: rgb(63, 63, 63);&quot;&gt;&lt;span style=&quot;scrollbar-color: light-dark(#e2e2e2, #4b4b4b)&lt;br/&gt;&#x9;&#x9;&#x9;&#x9;&#x9;light-dark(#fbfbfb, var(--dark-panel-color)); background-color: light-dark(#ffffff, var(--ge-dark-color, #121212));&quot;&gt;токен пациента&lt;/span&gt;&lt;/div&gt;" style="edgeLabel;html=1;align=center;verticalAlign=middle;resizable=0;points=[];" parent="Y9_rqvKDEg1pFthm3hxa-45" vertex="1" connectable="0">
                    <mxGeometry x="0.2553" y="2" relative="1" as="geometry">
                        <mxPoint x="17" y="-2" as="offset"/>
                    </mxGeometry>
                </mxCell>
                <mxCell id="Y9_rqvKDEg1pFthm3hxa-47" value="&amp;nbsp; 2&amp;nbsp; &amp;nbsp; &amp;nbsp; Файлы пациента (Data file)" style="html=1;dashed=0;whiteSpace=wrap;shape=mxgraph.dfd.dataStoreID;align=left;spacingLeft=3;points=[[0,0],[0.5,0],[1,0],[0,0.5],[1,0.5],[0,1],[0.5,1],[1,1]];noLabel=0;perimeter=none;" parent="1" vertex="1">
                    <mxGeometry x="-235" y="1050" width="200" height="30" as="geometry"/>
                </mxCell>
                <mxCell id="Y9_rqvKDEg1pFthm3hxa-48" value="&amp;nbsp; 7&amp;nbsp; &amp;nbsp; &amp;nbsp; Реестр анализов" style="html=1;dashed=0;whiteSpace=wrap;shape=mxgraph.dfd.dataStoreID;align=left;spacingLeft=3;points=[[0,0],[0.5,0],[1,0],[0,0.5],[1,0.5],[0,1],[0.5,1],[1,1]];noLabel=0;perimeter=none;" parent="1" vertex="1">
                    <mxGeometry x="-240" y="1120" width="210" height="30" as="geometry"/>
                </mxCell>
                <mxCell id="Y9_rqvKDEg1pFthm3hxa-49" style="edgeStyle=none;html=1;entryX=1;entryY=0.75;entryDx=0;entryDy=0;exitX=-0.005;exitY=0.533;exitDx=0;exitDy=0;exitPerimeter=0;" parent="1" source="Y9_rqvKDEg1pFthm3hxa-48" target="Y9_rqvKDEg1pFthm3hxa-38" edge="1">
                    <mxGeometry relative="1" as="geometry">
                        <mxPoint x="-360" y="1080" as="sourcePoint"/>
                    </mxGeometry>
                </mxCell>
                <mxCell id="Y9_rqvKDEg1pFthm3hxa-50" value="&lt;div style=&quot;scrollbar-color: light-dark(#e2e2e2, #4b4b4b)&lt;br/&gt;&#x9;&#x9;&#x9;&#x9;&#x9;light-dark(#fbfbfb, var(--dark-panel-color));&quot;&gt;Дешифрованные&lt;/div&gt;&lt;div style=&quot;scrollbar-color: light-dark(#e2e2e2, #4b4b4b)&lt;br/&gt;&#x9;&#x9;&#x9;&#x9;&#x9;light-dark(#fbfbfb, var(--dark-panel-color));&quot;&gt;токенизированные&lt;/div&gt;&lt;div style=&quot;scrollbar-color: light-dark(#e2e2e2, #4b4b4b)&lt;br/&gt;&#x9;&#x9;&#x9;&#x9;&#x9;light-dark(#fbfbfb, var(--dark-panel-color));&quot;&gt;&lt;span style=&quot;background-color: light-dark(#ffffff, var(--ge-dark-color, #121212));&quot;&gt;результаты&amp;nbsp;&lt;/span&gt;&lt;span style=&quot;background-color: light-dark(#ffffff, var(--ge-dark-color, #121212));&quot;&gt;анализов&lt;/span&gt;&lt;/div&gt;&lt;div style=&quot;scrollbar-color: light-dark(#e2e2e2, #4b4b4b)&lt;br/&gt;&#x9;&#x9;&#x9;&#x9;&#x9;light-dark(#fbfbfb, var(--dark-panel-color));&quot;&gt;&lt;span style=&quot;background-color: light-dark(#ffffff, var(--ge-dark-color, #121212));&quot;&gt;&lt;b&gt;tags: medical_private&lt;/b&gt;&lt;/span&gt;&lt;/div&gt;" style="edgeLabel;html=1;align=center;verticalAlign=middle;resizable=0;points=[];" parent="Y9_rqvKDEg1pFthm3hxa-49" vertex="1" connectable="0">
                    <mxGeometry x="-0.0141" relative="1" as="geometry">
                        <mxPoint x="-16" y="-4" as="offset"/>
                    </mxGeometry>
                </mxCell>
                <mxCell id="Y9_rqvKDEg1pFthm3hxa-51" value="&lt;p style=&quot;margin: 4px 0px 0px;&quot;&gt;&lt;strong style=&quot;&quot;&gt;7.0&lt;br&gt;&lt;/strong&gt;&lt;/p&gt;&lt;hr&gt;&lt;p style=&quot;margin: 0px; margin-left: 8px;&quot;&gt;Получение&amp;nbsp;&lt;/p&gt;&lt;p style=&quot;margin: 0px; margin-left: 8px;&quot;&gt;результатов&lt;/p&gt;&lt;p style=&quot;margin: 0px; margin-left: 8px;&quot;&gt;анализов&lt;/p&gt;" style="verticalAlign=middle;align=center;overflow=fill;fontSize=12;fontFamily=Helvetica;html=1;rounded=0;fontStyle=1;strokeWidth=1;spacing=2;arcSize=14;fillColor=#fff2cc;strokeColor=#d6b656;" parent="1" vertex="1">
                    <mxGeometry x="-560" y="1180" width="150" height="80" as="geometry"/>
                </mxCell>
                <mxCell id="Y9_rqvKDEg1pFthm3hxa-52" style="edgeStyle=none;html=1;exitX=1;exitY=0.5;exitDx=0;exitDy=0;entryX=0;entryY=0.5;entryDx=0;entryDy=0;" parent="1" source="Y9_rqvKDEg1pFthm3hxa-54" target="Y9_rqvKDEg1pFthm3hxa-51" edge="1">
                    <mxGeometry relative="1" as="geometry"/>
                </mxCell>
                <mxCell id="Y9_rqvKDEg1pFthm3hxa-53" value="&lt;div style=&quot;scrollbar-color: light-dark(#e2e2e2, #4b4b4b)&lt;br/&gt;&#x9;&#x9;&#x9;&#x9;&#x9;light-dark(#fbfbfb, var(--dark-panel-color));&quot;&gt;&lt;div style=&quot;scrollbar-color: light-dark(#e2e2e2, #4b4b4b)&lt;br/&gt;&#x9;&#x9;&#x9;&#x9;&#x9;light-dark(#fbfbfb, var(--dark-panel-color));&quot;&gt;Токенизированные&lt;/div&gt;&lt;div style=&quot;scrollbar-color: light-dark(#e2e2e2, #4b4b4b)&lt;br/&gt;&#x9;&#x9;&#x9;&#x9;&#x9;light-dark(#fbfbfb, var(--dark-panel-color));&quot;&gt;&lt;span style=&quot;scrollbar-color: light-dark(#e2e2e2, #4b4b4b)&lt;br/&gt;&#x9;&#x9;&#x9;&#x9;&#x9;light-dark(#fbfbfb, var(--dark-panel-color)); background-color: light-dark(#ffffff, var(--ge-dark-color, #121212));&quot;&gt;результаты&amp;nbsp;&lt;/span&gt;&lt;span style=&quot;scrollbar-color: light-dark(#e2e2e2, #4b4b4b)&lt;br/&gt;&#x9;&#x9;&#x9;&#x9;&#x9;light-dark(#fbfbfb, var(--dark-panel-color)); background-color: light-dark(#ffffff, var(--ge-dark-color, #121212));&quot;&gt;анализов&lt;/span&gt;&lt;/div&gt;&lt;/div&gt;" style="edgeLabel;html=1;align=center;verticalAlign=middle;resizable=0;points=[];" parent="Y9_rqvKDEg1pFthm3hxa-52" vertex="1" connectable="0">
                    <mxGeometry x="-0.0222" y="-3" relative="1" as="geometry">
                        <mxPoint as="offset"/>
                    </mxGeometry>
                </mxCell>
                <mxCell id="Y9_rqvKDEg1pFthm3hxa-54" value="Лаборатория&#xa;(внешняя система)" style="whiteSpace=wrap;align=center;verticalAlign=middle;fontStyle=1;strokeWidth=1;fillColor=#dae8fc;strokeColor=#6c8ebf;rounded=0;" parent="1" vertex="1">
                    <mxGeometry x="-800" y="1190" width="90" height="60" as="geometry"/>
                </mxCell>
                <mxCell id="Y9_rqvKDEg1pFthm3hxa-55" value="&amp;nbsp; 7&amp;nbsp; &amp;nbsp; &amp;nbsp; Реестр анализов" style="html=1;dashed=0;whiteSpace=wrap;shape=mxgraph.dfd.dataStoreID;align=left;spacingLeft=3;points=[[0,0],[0.5,0],[1,0],[0,0.5],[1,0.5],[0,1],[0.5,1],[1,1]];noLabel=0;perimeter=none;" parent="1" vertex="1">
                    <mxGeometry x="-240" y="1205" width="210" height="30" as="geometry"/>
                </mxCell>
                <mxCell id="Y9_rqvKDEg1pFthm3hxa-56" style="edgeStyle=none;html=1;exitX=1;exitY=0.5;exitDx=0;exitDy=0;entryX=-0.014;entryY=0.467;entryDx=0;entryDy=0;entryPerimeter=0;" parent="1" source="Y9_rqvKDEg1pFthm3hxa-51" target="Y9_rqvKDEg1pFthm3hxa-55" edge="1">
                    <mxGeometry relative="1" as="geometry">
                        <mxPoint x="-360" y="1320" as="sourcePoint"/>
                        <mxPoint x="-330" y="1340" as="targetPoint"/>
                    </mxGeometry>
                </mxCell>
                <mxCell id="Y9_rqvKDEg1pFthm3hxa-57" value="&lt;div style=&quot;scrollbar-color: light-dark(#e2e2e2, #4b4b4b)&lt;br/&gt;&#x9;&#x9;&#x9;&#x9;&#x9;light-dark(#fbfbfb, var(--dark-panel-color));&quot;&gt;&lt;div style=&quot;scrollbar-color: light-dark(#e2e2e2, #4b4b4b)&lt;br/&gt;&#x9;&#x9;&#x9;&#x9;&#x9;light-dark(#fbfbfb, var(--dark-panel-color));&quot;&gt;Шифрованные&lt;/div&gt;&lt;div style=&quot;scrollbar-color: light-dark(#e2e2e2, #4b4b4b)&lt;br/&gt;&#x9;&#x9;&#x9;&#x9;&#x9;light-dark(#fbfbfb, var(--dark-panel-color));&quot;&gt;токенизированные&lt;/div&gt;&lt;div style=&quot;scrollbar-color: light-dark(#e2e2e2, #4b4b4b)&lt;br/&gt;&#x9;&#x9;&#x9;&#x9;&#x9;light-dark(#fbfbfb, var(--dark-panel-color));&quot;&gt;&lt;span style=&quot;scrollbar-color: light-dark(#e2e2e2, #4b4b4b)&lt;br/&gt;&#x9;&#x9;&#x9;&#x9;&#x9;light-dark(#fbfbfb, var(--dark-panel-color)); background-color: light-dark(#ffffff, var(--ge-dark-color, #121212));&quot;&gt;результаты&amp;nbsp;&lt;/span&gt;&lt;span style=&quot;scrollbar-color: light-dark(#e2e2e2, #4b4b4b)&lt;br/&gt;&#x9;&#x9;&#x9;&#x9;&#x9;light-dark(#fbfbfb, var(--dark-panel-color)); background-color: light-dark(#ffffff, var(--ge-dark-color, #121212));&quot;&gt;анализов&lt;/span&gt;&lt;/div&gt;&lt;div style=&quot;scrollbar-color: light-dark(#e2e2e2, #4b4b4b)&lt;br/&gt;&#x9;&#x9;&#x9;&#x9;&#x9;light-dark(#fbfbfb, var(--dark-panel-color));&quot;&gt;&lt;span style=&quot;scrollbar-color: light-dark(#e2e2e2, #4b4b4b)&lt;br/&gt;&#x9;&#x9;&#x9;&#x9;&#x9;light-dark(#fbfbfb, var(--dark-panel-color)); background-color: light-dark(#ffffff, var(--ge-dark-color, #121212));&quot;&gt;&lt;b style=&quot;scrollbar-color: light-dark(#e2e2e2, #4b4b4b)&lt;br/&gt;&#x9;&#x9;&#x9;&#x9;&#x9;light-dark(#fbfbfb, var(--dark-panel-color));&quot;&gt;tags: medical_private&lt;/b&gt;&lt;/span&gt;&lt;/div&gt;&lt;/div&gt;" style="edgeLabel;html=1;align=center;verticalAlign=middle;resizable=0;points=[];" parent="Y9_rqvKDEg1pFthm3hxa-56" vertex="1" connectable="0">
                    <mxGeometry x="-0.0141" relative="1" as="geometry">
                        <mxPoint x="-16" y="-4" as="offset"/>
                    </mxGeometry>
                </mxCell>
                <mxCell id="Y9_rqvKDEg1pFthm3hxa-58" value="&lt;p style=&quot;margin: 4px 0px 0px;&quot;&gt;&lt;strong style=&quot;&quot;&gt;5.0&lt;br&gt;&lt;/strong&gt;&lt;/p&gt;&lt;hr&gt;&lt;p style=&quot;margin: 0px; margin-left: 8px;&quot;&gt;Процесс&lt;/p&gt;&lt;p style=&quot;margin: 0px; margin-left: 8px;&quot;&gt;платежей&lt;/p&gt;" style="verticalAlign=middle;align=center;overflow=fill;fontSize=12;fontFamily=Helvetica;html=1;rounded=0;fontStyle=1;strokeWidth=1;spacing=2;arcSize=14;fillColor=#fff2cc;strokeColor=#d6b656;" parent="1" vertex="1">
                    <mxGeometry x="-623" y="750" width="150" height="80" as="geometry"/>
                </mxCell>
                <mxCell id="Y9_rqvKDEg1pFthm3hxa-59" style="edgeStyle=none;html=1;exitX=1;exitY=0.5;exitDx=0;exitDy=0;entryX=0;entryY=0.5;entryDx=0;entryDy=0;" parent="1" source="Y9_rqvKDEg1pFthm3hxa-61" target="Y9_rqvKDEg1pFthm3hxa-58" edge="1">
                    <mxGeometry relative="1" as="geometry"/>
                </mxCell>
                <mxCell id="Y9_rqvKDEg1pFthm3hxa-60" value="Движение&lt;div&gt;денежных&amp;nbsp;&lt;div&gt;средств&lt;/div&gt;&lt;/div&gt;" style="edgeLabel;html=1;align=center;verticalAlign=middle;resizable=0;points=[];" parent="Y9_rqvKDEg1pFthm3hxa-59" vertex="1" connectable="0">
                    <mxGeometry x="0.0933" y="1" relative="1" as="geometry">
                        <mxPoint as="offset"/>
                    </mxGeometry>
                </mxCell>
                <mxCell id="Y9_rqvKDEg1pFthm3hxa-61" value="Бухгалтер" style="whiteSpace=wrap;align=center;verticalAlign=middle;fontStyle=1;strokeWidth=1;fillColor=#d5e8d4;strokeColor=#82b366;rounded=0;" parent="1" vertex="1">
                    <mxGeometry x="-800" y="760" width="90" height="60" as="geometry"/>
                </mxCell>
                <mxCell id="Y9_rqvKDEg1pFthm3hxa-62" value="&amp;nbsp; 6&amp;nbsp; &amp;nbsp; &amp;nbsp; &amp;nbsp;Файловая БД 1С Бухгалтерия" style="html=1;dashed=0;whiteSpace=wrap;shape=mxgraph.dfd.dataStoreID;align=left;spacingLeft=3;points=[[0,0],[0.5,0],[1,0],[0,0.5],[1,0.5],[0,1],[0.5,1],[1,1]];noLabel=0;perimeter=none;" parent="1" vertex="1">
                    <mxGeometry x="-280" y="810" width="260" height="30" as="geometry"/>
                </mxCell>
                <mxCell id="Y9_rqvKDEg1pFthm3hxa-63" style="edgeStyle=none;html=1;exitX=1;exitY=0.75;exitDx=0;exitDy=0;entryX=-0.005;entryY=0.467;entryDx=0;entryDy=0;entryPerimeter=0;startArrow=none;startFill=0;" parent="1" source="Y9_rqvKDEg1pFthm3hxa-58" target="Y9_rqvKDEg1pFthm3hxa-62" edge="1">
                    <mxGeometry relative="1" as="geometry"/>
                </mxCell>
                <mxCell id="Y9_rqvKDEg1pFthm3hxa-64" value="&lt;div style=&quot;scrollbar-color: light-dark(#e2e2e2, #4b4b4b)&lt;br/&gt;&#x9;&#x9;&#x9;&#x9;&#x9;light-dark(#fbfbfb, var(--dark-panel-color));&quot;&gt;&lt;span style=&quot;scrollbar-color: light-dark(#e2e2e2, #4b4b4b)&lt;br/&gt;&#x9;&#x9;&#x9;&#x9;&#x9;light-dark(#fbfbfb, var(--dark-panel-color)); color: rgb(0, 0, 0);&quot;&gt;Шифрованные данные о&lt;/span&gt;&lt;/div&gt;&lt;span style=&quot;scrollbar-color: light-dark(#e2e2e2, #4b4b4b)&lt;br/&gt;&#x9;&#x9;&#x9;&#x9;&#x9;light-dark(#fbfbfb, var(--dark-panel-color)); color: rgb(0, 0, 0);&quot;&gt;движении ДС&lt;/span&gt;&lt;div style=&quot;scrollbar-color: light-dark(#e2e2e2, #4b4b4b)&lt;br/&gt;&#x9;&#x9;&#x9;&#x9;&#x9;light-dark(#fbfbfb, var(--dark-panel-color));&quot;&gt;&lt;span style=&quot;scrollbar-color: light-dark(#e2e2e2, #4b4b4b)&lt;br/&gt;&#x9;&#x9;&#x9;&#x9;&#x9;light-dark(#fbfbfb, var(--dark-panel-color)); color: rgb(0, 0, 0);&quot;&gt;&lt;b style=&quot;scrollbar-color: light-dark(#e2e2e2, #4b4b4b)&lt;br/&gt;&#x9;&#x9;&#x9;&#x9;&#x9;light-dark(#fbfbfb, var(--dark-panel-color)); color: rgb(63, 63, 63);&quot;&gt;tags: medikamente_private&lt;/b&gt;&lt;/span&gt;&lt;/div&gt;" style="edgeLabel;html=1;align=center;verticalAlign=middle;resizable=0;points=[];" parent="Y9_rqvKDEg1pFthm3hxa-63" vertex="1" connectable="0">
                    <mxGeometry x="-0.1349" y="-1" relative="1" as="geometry">
                        <mxPoint x="4" y="8" as="offset"/>
                    </mxGeometry>
                </mxCell>
                <mxCell id="Y9_rqvKDEg1pFthm3hxa-65" value="&amp;nbsp; 5&amp;nbsp; &amp;nbsp; &amp;nbsp; &amp;nbsp;Файловая БД 1С Торговля и Склад" style="html=1;dashed=0;whiteSpace=wrap;shape=mxgraph.dfd.dataStoreID;align=left;spacingLeft=3;points=[[0,0],[0.5,0],[1,0],[0,0.5],[1,0.5],[0,1],[0.5,1],[1,1]];noLabel=0;perimeter=none;" parent="1" vertex="1">
                    <mxGeometry x="-292.5" y="740" width="260" height="30" as="geometry"/>
                </mxCell>
                <mxCell id="Y9_rqvKDEg1pFthm3hxa-66" style="edgeStyle=none;html=1;exitX=-0.015;exitY=0.5;exitDx=0;exitDy=0;exitPerimeter=0;entryX=1;entryY=0.25;entryDx=0;entryDy=0;" parent="1" source="Y9_rqvKDEg1pFthm3hxa-65" target="Y9_rqvKDEg1pFthm3hxa-58" edge="1">
                    <mxGeometry relative="1" as="geometry">
                        <mxPoint x="-370" y="720" as="targetPoint"/>
                    </mxGeometry>
                </mxCell>
                <mxCell id="Y9_rqvKDEg1pFthm3hxa-67" value="&lt;span style=&quot;scrollbar-color: light-dark(#e2e2e2, #4b4b4b)&lt;br/&gt;&#x9;&#x9;&#x9;&#x9;&#x9;light-dark(#fbfbfb, var(--dark-panel-color)); color: rgb(0, 0, 0);&quot;&gt;Шифрованные,&lt;/span&gt;&lt;div style=&quot;scrollbar-color: light-dark(#e2e2e2, #4b4b4b)&lt;br/&gt;&#x9;&#x9;&#x9;&#x9;&#x9;light-dark(#fbfbfb, var(--dark-panel-color));&quot;&gt;&lt;div style=&quot;scrollbar-color: light-dark(#e2e2e2, #4b4b4b)&lt;br/&gt;&#x9;&#x9;&#x9;&#x9;&#x9;light-dark(#fbfbfb, var(--dark-panel-color));&quot;&gt;&lt;span style=&quot;scrollbar-color: light-dark(#e2e2e2, #4b4b4b)&lt;br/&gt;&#x9;&#x9;&#x9;&#x9;&#x9;light-dark(#fbfbfb, var(--dark-panel-color)); color: rgb(0, 0, 0);&quot;&gt;Данные ТМЦ&lt;/span&gt;&lt;/div&gt;&lt;/div&gt;&lt;div style=&quot;scrollbar-color: light-dark(#e2e2e2, #4b4b4b)&lt;br/&gt;&#x9;&#x9;&#x9;&#x9;&#x9;light-dark(#fbfbfb, var(--dark-panel-color));&quot;&gt;&lt;span style=&quot;scrollbar-color: light-dark(#e2e2e2, #4b4b4b)&lt;br/&gt;&#x9;&#x9;&#x9;&#x9;&#x9;light-dark(#fbfbfb, var(--dark-panel-color)); color: rgb(0, 0, 0);&quot;&gt;&lt;b style=&quot;scrollbar-color: light-dark(#e2e2e2, #4b4b4b)&lt;br/&gt;&#x9;&#x9;&#x9;&#x9;&#x9;light-dark(#fbfbfb, var(--dark-panel-color)); color: rgb(63, 63, 63);&quot;&gt;tags: medikamente_private&lt;/b&gt;&lt;/span&gt;&lt;/div&gt;" style="edgeLabel;html=1;align=center;verticalAlign=middle;resizable=0;points=[];" parent="Y9_rqvKDEg1pFthm3hxa-66" vertex="1" connectable="0">
                    <mxGeometry x="-0.0158" relative="1" as="geometry">
                        <mxPoint x="-1" as="offset"/>
                    </mxGeometry>
                </mxCell>
                <mxCell id="YJxeL_loJ9hxP8wG6K18-2" style="edgeStyle=none;html=1;exitX=1;exitY=0.25;exitDx=0;exitDy=0;entryX=-0.005;entryY=0.467;entryDx=0;entryDy=0;startArrow=classic;startFill=1;entryPerimeter=0;" parent="1" source="Y9_rqvKDEg1pFthm3hxa-4" target="Y9_rqvKDEg1pFthm3hxa-5" edge="1">
                    <mxGeometry relative="1" as="geometry">
                        <mxPoint x="-335" y="85" as="sourcePoint"/>
                        <mxPoint x="-655" y="95" as="targetPoint"/>
                        <Array as="points"/>
                    </mxGeometry>
                </mxCell>
                <mxCell id="YJxeL_loJ9hxP8wG6K18-3" value="&lt;div style=&quot;scrollbar-color: light-dark(#e2e2e2, #4b4b4b)&lt;br/&gt;&#x9;&#x9;&#x9;&#x9;&#x9;light-dark(#fbfbfb, var(--dark-panel-color));&quot;&gt;&lt;span style=&quot;color: rgb(63, 63, 63);&quot;&gt;Шифрованные&lt;/span&gt;&lt;br&gt;&lt;/div&gt;&lt;div style=&quot;scrollbar-color: light-dark(#e2e2e2, #4b4b4b)&lt;br/&gt;&#x9;&#x9;&#x9;&#x9;&#x9;light-dark(#fbfbfb, var(--dark-panel-color));&quot;&gt;&lt;span style=&quot;background-color: light-dark(#ffffff, var(--ge-dark-color, #121212));&quot;&gt;токенизированные&lt;/span&gt;&lt;/div&gt;&lt;div style=&quot;scrollbar-color: light-dark(#e2e2e2, #4b4b4b)&lt;br/&gt;&#x9;&#x9;&#x9;&#x9;&#x9;light-dark(#fbfbfb, var(--dark-panel-color));&quot;&gt;&lt;span style=&quot;background-color: light-dark(#ffffff, var(--ge-dark-color, #121212));&quot;&gt;данные&amp;nbsp;&lt;/span&gt;&lt;span style=&quot;background-color: light-dark(#ffffff, var(--ge-dark-color, #121212));&quot;&gt;пациента&lt;/span&gt;&lt;/div&gt;&lt;div style=&quot;scrollbar-color: light-dark(#e2e2e2, #4b4b4b)&lt;br/&gt;&#x9;&#x9;&#x9;&#x9;&#x9;light-dark(#fbfbfb, var(--dark-panel-color));&quot;&gt;&lt;div style=&quot;color: rgb(63, 63, 63); scrollbar-color: light-dark(#e2e2e2, #4b4b4b)&lt;br/&gt;&#x9;&#x9;&#x9;&#x9;&#x9;light-dark(#fbfbfb, var(--dark-panel-color));&quot;&gt;включая&amp;nbsp;&lt;/div&gt;&lt;div style=&quot;color: rgb(63, 63, 63); scrollbar-color: light-dark(#e2e2e2, #4b4b4b)&lt;br/&gt;&#x9;&#x9;&#x9;&#x9;&#x9;light-dark(#fbfbfb, var(--dark-panel-color));&quot;&gt;конфиденциальные&lt;/div&gt;&lt;div style=&quot;color: rgb(63, 63, 63); scrollbar-color: light-dark(#e2e2e2, #4b4b4b)&lt;br/&gt;&#x9;&#x9;&#x9;&#x9;&#x9;light-dark(#fbfbfb, var(--dark-panel-color));&quot;&gt;&lt;b&gt;tags: patient_protected,&amp;nbsp;&lt;/b&gt;&lt;/div&gt;&lt;div style=&quot;color: rgb(63, 63, 63); scrollbar-color: light-dark(#e2e2e2, #4b4b4b)&lt;br/&gt;&#x9;&#x9;&#x9;&#x9;&#x9;light-dark(#fbfbfb, var(--dark-panel-color));&quot;&gt;&lt;b&gt;patient_private&lt;/b&gt;&lt;/div&gt;&lt;/div&gt;" style="edgeLabel;html=1;align=center;verticalAlign=middle;resizable=0;points=[];" parent="YJxeL_loJ9hxP8wG6K18-2" vertex="1" connectable="0">
                    <mxGeometry x="-0.0888" y="4" relative="1" as="geometry">
                        <mxPoint y="-1" as="offset"/>
                    </mxGeometry>
                </mxCell>
                <mxCell id="YJxeL_loJ9hxP8wG6K18-12" value="&amp;nbsp; 1&amp;nbsp; &amp;nbsp; &amp;nbsp; Patients" style="html=1;dashed=0;whiteSpace=wrap;shape=mxgraph.dfd.dataStoreID;align=left;spacingLeft=3;points=[[0,0],[0.5,0],[1,0],[0,0.5],[1,0.5],[0,1],[0.5,1],[1,1]];noLabel=0;perimeter=none;" parent="1" vertex="1">
                    <mxGeometry x="-240" y="860" width="130" height="30" as="geometry"/>
                </mxCell>
                <mxCell id="YJxeL_loJ9hxP8wG6K18-14" style="edgeStyle=none;html=1;entryX=1;entryY=0;entryDx=0;entryDy=0;exitX=0;exitY=0.667;exitDx=0;exitDy=0;exitPerimeter=0;" parent="1" source="YJxeL_loJ9hxP8wG6K18-12" target="Y9_rqvKDEg1pFthm3hxa-38" edge="1">
                    <mxGeometry relative="1" as="geometry">
                        <mxPoint x="-233" y="933" as="sourcePoint"/>
                        <mxPoint x="-450" y="970" as="targetPoint"/>
                    </mxGeometry>
                </mxCell>
                <mxCell id="YJxeL_loJ9hxP8wG6K18-15" value="&lt;div style=&quot;scrollbar-color: light-dark(#e2e2e2, #4b4b4b)&lt;br/&gt;&#x9;&#x9;&#x9;&#x9;&#x9;light-dark(#fbfbfb, var(--dark-panel-color)); color: rgb(63, 63, 63);&quot;&gt;&lt;span style=&quot;scrollbar-color: light-dark(#e2e2e2, #4b4b4b)&lt;br/&gt;&#x9;&#x9;&#x9;&#x9;&#x9;light-dark(#fbfbfb, var(--dark-panel-color)); color: rgb(63, 63, 63);&quot;&gt;Дешифрованные&lt;/span&gt;&lt;/div&gt;&lt;div style=&quot;scrollbar-color: light-dark(#e2e2e2, #4b4b4b)&lt;br/&gt;&#x9;&#x9;&#x9;&#x9;&#x9;light-dark(#fbfbfb, var(--dark-panel-color)); color: rgb(63, 63, 63);&quot;&gt;&lt;span style=&quot;scrollbar-color: light-dark(#e2e2e2, #4b4b4b)&lt;br/&gt;&#x9;&#x9;&#x9;&#x9;&#x9;light-dark(#fbfbfb, var(--dark-panel-color)); color: rgb(63, 63, 63);&quot;&gt;данные&amp;nbsp;&amp;nbsp;&lt;/span&gt;&lt;span style=&quot;scrollbar-color: light-dark(#e2e2e2, #4b4b4b)&lt;br/&gt;&#x9;&#x9;&#x9;&#x9;&#x9;light-dark(#fbfbfb, var(--dark-panel-color)); background-color: light-dark(#ffffff, var(--ge-dark-color, #121212));&quot;&gt;пациента&lt;/span&gt;&lt;/div&gt;&lt;div style=&quot;scrollbar-color: light-dark(#e2e2e2, #4b4b4b)&lt;br/&gt;&#x9;&#x9;&#x9;&#x9;&#x9;light-dark(#fbfbfb, var(--dark-panel-color)); color: rgb(63, 63, 63);&quot;&gt;&lt;span style=&quot;scrollbar-color: light-dark(#e2e2e2, #4b4b4b)&lt;br/&gt;&#x9;&#x9;&#x9;&#x9;&#x9;light-dark(#fbfbfb, var(--dark-panel-color)); background-color: light-dark(#ffffff, var(--ge-dark-color, #121212));&quot;&gt;&lt;b style=&quot;color: rgb(63, 63, 63); scrollbar-color: light-dark(#e2e2e2, #4b4b4b)&lt;br/&gt;&#x9;&#x9;&#x9;&#x9;&#x9;light-dark(#fbfbfb, var(--dark-panel-color));&quot;&gt;tags: patient_protected&lt;/b&gt;&lt;br&gt;&lt;/span&gt;&lt;/div&gt;" style="edgeLabel;html=1;align=center;verticalAlign=middle;resizable=0;points=[];" parent="YJxeL_loJ9hxP8wG6K18-14" vertex="1" connectable="0">
                    <mxGeometry x="0.2553" y="2" relative="1" as="geometry">
                        <mxPoint x="17" y="-20" as="offset"/>
                    </mxGeometry>
                </mxCell>
            </root>
        </mxGraphModel>
    </diagram>
</mxfile>